%TF.GenerationSoftware,KiCad,Pcbnew,9.0.2*%
%TF.CreationDate,2025-07-16T12:37:39-05:00*%
%TF.ProjectId,Bast_n guiador con detecci_n,42617374-f36e-4206-9775-6961646f7220,rev?*%
%TF.SameCoordinates,Original*%
%TF.FileFunction,Legend,Top*%
%TF.FilePolarity,Positive*%
%FSLAX46Y46*%
G04 Gerber Fmt 4.6, Leading zero omitted, Abs format (unit mm)*
G04 Created by KiCad (PCBNEW 9.0.2) date 2025-07-16 12:37:39*
%MOMM*%
%LPD*%
G01*
G04 APERTURE LIST*
%ADD10C,0.300000*%
%ADD11C,0.150000*%
%ADD12C,0.120000*%
%ADD13C,0.127000*%
%ADD14C,0.200000*%
G04 APERTURE END LIST*
D10*
X142611653Y-70514400D02*
X144897368Y-70514400D01*
X143754510Y-71657257D02*
X143754510Y-69371542D01*
X87819153Y-64424400D02*
X90104868Y-64424400D01*
X88962010Y-65567257D02*
X88962010Y-63281542D01*
X70911653Y-48974400D02*
X73197368Y-48974400D01*
X72054510Y-50117257D02*
X72054510Y-47831542D01*
X141911653Y-43474400D02*
X144197368Y-43474400D01*
X143054510Y-44617257D02*
X143054510Y-42331542D01*
D11*
X72166666Y-111254819D02*
X71833333Y-110778628D01*
X71595238Y-111254819D02*
X71595238Y-110254819D01*
X71595238Y-110254819D02*
X71976190Y-110254819D01*
X71976190Y-110254819D02*
X72071428Y-110302438D01*
X72071428Y-110302438D02*
X72119047Y-110350057D01*
X72119047Y-110350057D02*
X72166666Y-110445295D01*
X72166666Y-110445295D02*
X72166666Y-110588152D01*
X72166666Y-110588152D02*
X72119047Y-110683390D01*
X72119047Y-110683390D02*
X72071428Y-110731009D01*
X72071428Y-110731009D02*
X71976190Y-110778628D01*
X71976190Y-110778628D02*
X71595238Y-110778628D01*
X72595238Y-110731009D02*
X72928571Y-110731009D01*
X73071428Y-111254819D02*
X72595238Y-111254819D01*
X72595238Y-111254819D02*
X72595238Y-110254819D01*
X72595238Y-110254819D02*
X73071428Y-110254819D01*
X73833333Y-110731009D02*
X73500000Y-110731009D01*
X73500000Y-111254819D02*
X73500000Y-110254819D01*
X73500000Y-110254819D02*
X73976190Y-110254819D01*
X74500000Y-110254819D02*
X74500000Y-110492914D01*
X74261905Y-110397676D02*
X74500000Y-110492914D01*
X74500000Y-110492914D02*
X74738095Y-110397676D01*
X74357143Y-110683390D02*
X74500000Y-110492914D01*
X74500000Y-110492914D02*
X74642857Y-110683390D01*
X75261905Y-110254819D02*
X75261905Y-110492914D01*
X75023810Y-110397676D02*
X75261905Y-110492914D01*
X75261905Y-110492914D02*
X75500000Y-110397676D01*
X75119048Y-110683390D02*
X75261905Y-110492914D01*
X75261905Y-110492914D02*
X75404762Y-110683390D01*
X77428095Y-91209819D02*
X77428095Y-92019342D01*
X77428095Y-92019342D02*
X77475714Y-92114580D01*
X77475714Y-92114580D02*
X77523333Y-92162200D01*
X77523333Y-92162200D02*
X77618571Y-92209819D01*
X77618571Y-92209819D02*
X77809047Y-92209819D01*
X77809047Y-92209819D02*
X77904285Y-92162200D01*
X77904285Y-92162200D02*
X77951904Y-92114580D01*
X77951904Y-92114580D02*
X77999523Y-92019342D01*
X77999523Y-92019342D02*
X77999523Y-91209819D01*
X78999523Y-92209819D02*
X78428095Y-92209819D01*
X78713809Y-92209819D02*
X78713809Y-91209819D01*
X78713809Y-91209819D02*
X78618571Y-91352676D01*
X78618571Y-91352676D02*
X78523333Y-91447914D01*
X78523333Y-91447914D02*
X78428095Y-91495533D01*
X149860057Y-64095238D02*
X149812438Y-64190476D01*
X149812438Y-64190476D02*
X149717200Y-64285714D01*
X149717200Y-64285714D02*
X149574342Y-64428571D01*
X149574342Y-64428571D02*
X149526723Y-64523809D01*
X149526723Y-64523809D02*
X149526723Y-64619047D01*
X149764819Y-64571428D02*
X149717200Y-64666666D01*
X149717200Y-64666666D02*
X149621961Y-64761904D01*
X149621961Y-64761904D02*
X149431485Y-64809523D01*
X149431485Y-64809523D02*
X149098152Y-64809523D01*
X149098152Y-64809523D02*
X148907676Y-64761904D01*
X148907676Y-64761904D02*
X148812438Y-64666666D01*
X148812438Y-64666666D02*
X148764819Y-64571428D01*
X148764819Y-64571428D02*
X148764819Y-64380952D01*
X148764819Y-64380952D02*
X148812438Y-64285714D01*
X148812438Y-64285714D02*
X148907676Y-64190476D01*
X148907676Y-64190476D02*
X149098152Y-64142857D01*
X149098152Y-64142857D02*
X149431485Y-64142857D01*
X149431485Y-64142857D02*
X149621961Y-64190476D01*
X149621961Y-64190476D02*
X149717200Y-64285714D01*
X149717200Y-64285714D02*
X149764819Y-64380952D01*
X149764819Y-64380952D02*
X149764819Y-64571428D01*
X149764819Y-63190476D02*
X149764819Y-63761904D01*
X149764819Y-63476190D02*
X148764819Y-63476190D01*
X148764819Y-63476190D02*
X148907676Y-63571428D01*
X148907676Y-63571428D02*
X149002914Y-63666666D01*
X149002914Y-63666666D02*
X149050533Y-63761904D01*
X155890476Y-59909819D02*
X155890476Y-58909819D01*
X155890476Y-58909819D02*
X156223809Y-59624104D01*
X156223809Y-59624104D02*
X156557142Y-58909819D01*
X156557142Y-58909819D02*
X156557142Y-59909819D01*
X157557142Y-59909819D02*
X156985714Y-59909819D01*
X157271428Y-59909819D02*
X157271428Y-58909819D01*
X157271428Y-58909819D02*
X157176190Y-59052676D01*
X157176190Y-59052676D02*
X157080952Y-59147914D01*
X157080952Y-59147914D02*
X156985714Y-59195533D01*
X130033333Y-62124819D02*
X129700000Y-61648628D01*
X129461905Y-62124819D02*
X129461905Y-61124819D01*
X129461905Y-61124819D02*
X129842857Y-61124819D01*
X129842857Y-61124819D02*
X129938095Y-61172438D01*
X129938095Y-61172438D02*
X129985714Y-61220057D01*
X129985714Y-61220057D02*
X130033333Y-61315295D01*
X130033333Y-61315295D02*
X130033333Y-61458152D01*
X130033333Y-61458152D02*
X129985714Y-61553390D01*
X129985714Y-61553390D02*
X129938095Y-61601009D01*
X129938095Y-61601009D02*
X129842857Y-61648628D01*
X129842857Y-61648628D02*
X129461905Y-61648628D01*
X130985714Y-62124819D02*
X130414286Y-62124819D01*
X130700000Y-62124819D02*
X130700000Y-61124819D01*
X130700000Y-61124819D02*
X130604762Y-61267676D01*
X130604762Y-61267676D02*
X130509524Y-61362914D01*
X130509524Y-61362914D02*
X130414286Y-61410533D01*
X129833333Y-48084819D02*
X129500000Y-47608628D01*
X129261905Y-48084819D02*
X129261905Y-47084819D01*
X129261905Y-47084819D02*
X129642857Y-47084819D01*
X129642857Y-47084819D02*
X129738095Y-47132438D01*
X129738095Y-47132438D02*
X129785714Y-47180057D01*
X129785714Y-47180057D02*
X129833333Y-47275295D01*
X129833333Y-47275295D02*
X129833333Y-47418152D01*
X129833333Y-47418152D02*
X129785714Y-47513390D01*
X129785714Y-47513390D02*
X129738095Y-47561009D01*
X129738095Y-47561009D02*
X129642857Y-47608628D01*
X129642857Y-47608628D02*
X129261905Y-47608628D01*
X130214286Y-47180057D02*
X130261905Y-47132438D01*
X130261905Y-47132438D02*
X130357143Y-47084819D01*
X130357143Y-47084819D02*
X130595238Y-47084819D01*
X130595238Y-47084819D02*
X130690476Y-47132438D01*
X130690476Y-47132438D02*
X130738095Y-47180057D01*
X130738095Y-47180057D02*
X130785714Y-47275295D01*
X130785714Y-47275295D02*
X130785714Y-47370533D01*
X130785714Y-47370533D02*
X130738095Y-47513390D01*
X130738095Y-47513390D02*
X130166667Y-48084819D01*
X130166667Y-48084819D02*
X130785714Y-48084819D01*
X95383095Y-34094819D02*
X95383095Y-34904342D01*
X95383095Y-34904342D02*
X95430714Y-34999580D01*
X95430714Y-34999580D02*
X95478333Y-35047200D01*
X95478333Y-35047200D02*
X95573571Y-35094819D01*
X95573571Y-35094819D02*
X95764047Y-35094819D01*
X95764047Y-35094819D02*
X95859285Y-35047200D01*
X95859285Y-35047200D02*
X95906904Y-34999580D01*
X95906904Y-34999580D02*
X95954523Y-34904342D01*
X95954523Y-34904342D02*
X95954523Y-34094819D01*
X96383095Y-34190057D02*
X96430714Y-34142438D01*
X96430714Y-34142438D02*
X96525952Y-34094819D01*
X96525952Y-34094819D02*
X96764047Y-34094819D01*
X96764047Y-34094819D02*
X96859285Y-34142438D01*
X96859285Y-34142438D02*
X96906904Y-34190057D01*
X96906904Y-34190057D02*
X96954523Y-34285295D01*
X96954523Y-34285295D02*
X96954523Y-34380533D01*
X96954523Y-34380533D02*
X96906904Y-34523390D01*
X96906904Y-34523390D02*
X96335476Y-35094819D01*
X96335476Y-35094819D02*
X96954523Y-35094819D01*
X82164166Y-68284819D02*
X82164166Y-68999104D01*
X82164166Y-68999104D02*
X82116547Y-69141961D01*
X82116547Y-69141961D02*
X82021309Y-69237200D01*
X82021309Y-69237200D02*
X81878452Y-69284819D01*
X81878452Y-69284819D02*
X81783214Y-69284819D01*
X82592738Y-68380057D02*
X82640357Y-68332438D01*
X82640357Y-68332438D02*
X82735595Y-68284819D01*
X82735595Y-68284819D02*
X82973690Y-68284819D01*
X82973690Y-68284819D02*
X83068928Y-68332438D01*
X83068928Y-68332438D02*
X83116547Y-68380057D01*
X83116547Y-68380057D02*
X83164166Y-68475295D01*
X83164166Y-68475295D02*
X83164166Y-68570533D01*
X83164166Y-68570533D02*
X83116547Y-68713390D01*
X83116547Y-68713390D02*
X82545119Y-69284819D01*
X82545119Y-69284819D02*
X83164166Y-69284819D01*
X78196666Y-43874819D02*
X78196666Y-44589104D01*
X78196666Y-44589104D02*
X78149047Y-44731961D01*
X78149047Y-44731961D02*
X78053809Y-44827200D01*
X78053809Y-44827200D02*
X77910952Y-44874819D01*
X77910952Y-44874819D02*
X77815714Y-44874819D01*
X78577619Y-43874819D02*
X79196666Y-43874819D01*
X79196666Y-43874819D02*
X78863333Y-44255771D01*
X78863333Y-44255771D02*
X79006190Y-44255771D01*
X79006190Y-44255771D02*
X79101428Y-44303390D01*
X79101428Y-44303390D02*
X79149047Y-44351009D01*
X79149047Y-44351009D02*
X79196666Y-44446247D01*
X79196666Y-44446247D02*
X79196666Y-44684342D01*
X79196666Y-44684342D02*
X79149047Y-44779580D01*
X79149047Y-44779580D02*
X79101428Y-44827200D01*
X79101428Y-44827200D02*
X79006190Y-44874819D01*
X79006190Y-44874819D02*
X78720476Y-44874819D01*
X78720476Y-44874819D02*
X78625238Y-44827200D01*
X78625238Y-44827200D02*
X78577619Y-44779580D01*
X157619047Y-56131009D02*
X157761904Y-56178628D01*
X157761904Y-56178628D02*
X157809523Y-56226247D01*
X157809523Y-56226247D02*
X157857142Y-56321485D01*
X157857142Y-56321485D02*
X157857142Y-56464342D01*
X157857142Y-56464342D02*
X157809523Y-56559580D01*
X157809523Y-56559580D02*
X157761904Y-56607200D01*
X157761904Y-56607200D02*
X157666666Y-56654819D01*
X157666666Y-56654819D02*
X157285714Y-56654819D01*
X157285714Y-56654819D02*
X157285714Y-55654819D01*
X157285714Y-55654819D02*
X157619047Y-55654819D01*
X157619047Y-55654819D02*
X157714285Y-55702438D01*
X157714285Y-55702438D02*
X157761904Y-55750057D01*
X157761904Y-55750057D02*
X157809523Y-55845295D01*
X157809523Y-55845295D02*
X157809523Y-55940533D01*
X157809523Y-55940533D02*
X157761904Y-56035771D01*
X157761904Y-56035771D02*
X157714285Y-56083390D01*
X157714285Y-56083390D02*
X157619047Y-56131009D01*
X157619047Y-56131009D02*
X157285714Y-56131009D01*
X158190476Y-55654819D02*
X158857142Y-55654819D01*
X158857142Y-55654819D02*
X158190476Y-56654819D01*
X158190476Y-56654819D02*
X158857142Y-56654819D01*
X159761904Y-56654819D02*
X159190476Y-56654819D01*
X159476190Y-56654819D02*
X159476190Y-55654819D01*
X159476190Y-55654819D02*
X159380952Y-55797676D01*
X159380952Y-55797676D02*
X159285714Y-55892914D01*
X159285714Y-55892914D02*
X159190476Y-55940533D01*
X161929048Y-51613866D02*
X162690953Y-51613866D01*
X162310000Y-51994819D02*
X162310000Y-51232914D01*
X140706666Y-104804819D02*
X140706666Y-105519104D01*
X140706666Y-105519104D02*
X140659047Y-105661961D01*
X140659047Y-105661961D02*
X140563809Y-105757200D01*
X140563809Y-105757200D02*
X140420952Y-105804819D01*
X140420952Y-105804819D02*
X140325714Y-105804819D01*
X141706666Y-105804819D02*
X141135238Y-105804819D01*
X141420952Y-105804819D02*
X141420952Y-104804819D01*
X141420952Y-104804819D02*
X141325714Y-104947676D01*
X141325714Y-104947676D02*
X141230476Y-105042914D01*
X141230476Y-105042914D02*
X141135238Y-105090533D01*
X138040057Y-50095238D02*
X137992438Y-50190476D01*
X137992438Y-50190476D02*
X137897200Y-50285714D01*
X137897200Y-50285714D02*
X137754342Y-50428571D01*
X137754342Y-50428571D02*
X137706723Y-50523809D01*
X137706723Y-50523809D02*
X137706723Y-50619047D01*
X137944819Y-50571428D02*
X137897200Y-50666666D01*
X137897200Y-50666666D02*
X137801961Y-50761904D01*
X137801961Y-50761904D02*
X137611485Y-50809523D01*
X137611485Y-50809523D02*
X137278152Y-50809523D01*
X137278152Y-50809523D02*
X137087676Y-50761904D01*
X137087676Y-50761904D02*
X136992438Y-50666666D01*
X136992438Y-50666666D02*
X136944819Y-50571428D01*
X136944819Y-50571428D02*
X136944819Y-50380952D01*
X136944819Y-50380952D02*
X136992438Y-50285714D01*
X136992438Y-50285714D02*
X137087676Y-50190476D01*
X137087676Y-50190476D02*
X137278152Y-50142857D01*
X137278152Y-50142857D02*
X137611485Y-50142857D01*
X137611485Y-50142857D02*
X137801961Y-50190476D01*
X137801961Y-50190476D02*
X137897200Y-50285714D01*
X137897200Y-50285714D02*
X137944819Y-50380952D01*
X137944819Y-50380952D02*
X137944819Y-50571428D01*
X137040057Y-49761904D02*
X136992438Y-49714285D01*
X136992438Y-49714285D02*
X136944819Y-49619047D01*
X136944819Y-49619047D02*
X136944819Y-49380952D01*
X136944819Y-49380952D02*
X136992438Y-49285714D01*
X136992438Y-49285714D02*
X137040057Y-49238095D01*
X137040057Y-49238095D02*
X137135295Y-49190476D01*
X137135295Y-49190476D02*
X137230533Y-49190476D01*
X137230533Y-49190476D02*
X137373390Y-49238095D01*
X137373390Y-49238095D02*
X137944819Y-49809523D01*
X137944819Y-49809523D02*
X137944819Y-49190476D01*
X82429166Y-23399819D02*
X82429166Y-24114104D01*
X82429166Y-24114104D02*
X82381547Y-24256961D01*
X82381547Y-24256961D02*
X82286309Y-24352200D01*
X82286309Y-24352200D02*
X82143452Y-24399819D01*
X82143452Y-24399819D02*
X82048214Y-24399819D01*
X83333928Y-23733152D02*
X83333928Y-24399819D01*
X83095833Y-23352200D02*
X82857738Y-24066485D01*
X82857738Y-24066485D02*
X83476785Y-24066485D01*
%TO.C,U1*%
D12*
X85810000Y-105225000D02*
X70570000Y-105225000D01*
X70570000Y-79825000D01*
X85810000Y-79825000D01*
X85810000Y-105225000D01*
%TO.C,Q1*%
X147311018Y-59425307D02*
X146497844Y-60238480D01*
X148074693Y-60188982D02*
X147311018Y-59425307D01*
X147261520Y-61002156D02*
X148074693Y-60188982D01*
X147261520Y-61002156D02*
G75*
G02*
X146497844Y-60238480I-3761520J-2997844D01*
G01*
%TO.C,M1*%
X151045000Y-60455000D02*
X152315000Y-60455000D01*
X151045000Y-61725000D02*
X151045000Y-60455000D01*
X153392358Y-63835000D02*
X153705000Y-63835000D01*
X153392358Y-64695000D02*
X153705000Y-64695000D01*
X153475000Y-61295000D02*
X153705000Y-61295000D01*
X153475000Y-62155000D02*
X153705000Y-62155000D01*
X153705000Y-60345000D02*
X153705000Y-65645000D01*
X153705000Y-62995000D02*
X156465000Y-62995000D01*
X153705000Y-65645000D02*
X156465000Y-65645000D01*
X156465000Y-60345000D02*
X153705000Y-60345000D01*
X156465000Y-63835000D02*
X162465000Y-63835000D01*
X156465000Y-65645000D02*
X156465000Y-60345000D01*
X162465000Y-63835000D02*
X162465000Y-64695000D01*
X162465000Y-64695000D02*
X156465000Y-64695000D01*
X156465000Y-61295000D02*
X162465000Y-61295000D01*
X162465000Y-62155000D01*
X156465000Y-62155000D01*
X156465000Y-61295000D01*
G36*
X156465000Y-61295000D02*
G01*
X162465000Y-61295000D01*
X162465000Y-62155000D01*
X156465000Y-62155000D01*
X156465000Y-61295000D01*
G37*
%TO.C,R1*%
X126930000Y-62670000D02*
X133470000Y-62670000D01*
X133470000Y-65410000D01*
X126930000Y-65410000D01*
X126930000Y-62670000D01*
X134240000Y-64040000D02*
X133470000Y-64040000D01*
X126160000Y-64040000D02*
X126930000Y-64040000D01*
%TO.C,R2*%
X125960000Y-50000000D02*
X126730000Y-50000000D01*
X134040000Y-50000000D02*
X133270000Y-50000000D01*
X126730000Y-48630000D02*
X133270000Y-48630000D01*
X133270000Y-51370000D01*
X126730000Y-51370000D01*
X126730000Y-48630000D01*
D13*
%TO.C,U2*%
X116280000Y-87475000D02*
X121730000Y-87475000D01*
X98590000Y-87475000D02*
X116280000Y-87475000D01*
X93220000Y-87475000D02*
X98590000Y-87475000D01*
X121730000Y-36525000D02*
X121730000Y-87475000D01*
X93220000Y-87475000D02*
X93220000Y-36525000D01*
X111000000Y-36525000D02*
X121730000Y-36525000D01*
X104289000Y-36525000D02*
X111000000Y-36525000D01*
X93220000Y-36525000D02*
X104289000Y-36525000D01*
D14*
X92750000Y-46485000D02*
G75*
G02*
X92550000Y-46485000I-100000J0D01*
G01*
X92550000Y-46485000D02*
G75*
G02*
X92750000Y-46485000I100000J0D01*
G01*
D13*
X93220000Y-87475000D02*
X93220000Y-36525000D01*
X93220000Y-36525000D02*
X121730000Y-36525000D01*
X121730000Y-87475000D02*
X93220000Y-87475000D01*
X121730000Y-36525000D02*
X121730000Y-87475000D01*
D12*
%TO.C,J2*%
X78437500Y-58920000D02*
X78437500Y-63750000D01*
X78437500Y-65660000D02*
X78437500Y-63750000D01*
X79707500Y-65660000D02*
X79707500Y-67050000D01*
X82117500Y-58920000D02*
X78437500Y-58920000D01*
X82117500Y-59180000D02*
X82117500Y-58920000D01*
X82887500Y-58920000D02*
X82887500Y-59180000D01*
X82887500Y-58920000D02*
X86567500Y-58920000D01*
X82887500Y-59180000D02*
X82117500Y-59180000D01*
X85297500Y-65660000D02*
X85297500Y-67050000D01*
X85297500Y-65910000D02*
X79707500Y-65910000D01*
X85297500Y-66800000D02*
X79707500Y-66800000D01*
X85297500Y-67050000D02*
X79707500Y-67050000D01*
X85607500Y-65950000D02*
X86907500Y-65950000D01*
X86567500Y-63750000D02*
X86567500Y-58920000D01*
X86567500Y-65660000D02*
X78437500Y-65660000D01*
X86567500Y-65660000D02*
X86567500Y-63750000D01*
X86907500Y-65950000D02*
X86907500Y-63750000D01*
%TO.C,J3*%
X74120000Y-47300000D02*
X74120000Y-49500000D01*
X74460000Y-47590000D02*
X74460000Y-49500000D01*
X74460000Y-47590000D02*
X82590000Y-47590000D01*
X74460000Y-49500000D02*
X74460000Y-54330000D01*
X75420000Y-47300000D02*
X74120000Y-47300000D01*
X75730000Y-46200000D02*
X81320000Y-46200000D01*
X75730000Y-46450000D02*
X81320000Y-46450000D01*
X75730000Y-47340000D02*
X81320000Y-47340000D01*
X75730000Y-47590000D02*
X75730000Y-46200000D01*
X78140000Y-54070000D02*
X78910000Y-54070000D01*
X78140000Y-54330000D02*
X74460000Y-54330000D01*
X78140000Y-54330000D02*
X78140000Y-54070000D01*
X78910000Y-54070000D02*
X78910000Y-54330000D01*
X78910000Y-54330000D02*
X82590000Y-54330000D01*
X81320000Y-47590000D02*
X81320000Y-46200000D01*
X82590000Y-47590000D02*
X82590000Y-49500000D01*
X82590000Y-54330000D02*
X82590000Y-49500000D01*
%TO.C,BZ1*%
X164600000Y-49000000D02*
G75*
G02*
X152400000Y-49000000I-6100000J0D01*
G01*
X152400000Y-49000000D02*
G75*
G02*
X164600000Y-49000000I6100000J0D01*
G01*
%TO.C,J1*%
X133370000Y-106750000D02*
G75*
G02*
X132870000Y-106750000I-250000J0D01*
G01*
X132870000Y-106750000D02*
G75*
G02*
X133370000Y-106750000I250000J0D01*
G01*
X151420000Y-114660000D02*
X151420000Y-106440000D01*
X151420000Y-106440000D02*
X150000000Y-106440000D01*
X150000000Y-107390000D02*
X141040000Y-107390000D01*
X150000000Y-106440000D02*
X150000000Y-107390000D01*
X141040000Y-114660000D02*
X151420000Y-114660000D01*
X141040000Y-114660000D02*
X130660000Y-114660000D01*
X132080000Y-107390000D02*
X141040000Y-107390000D01*
X132080000Y-106440000D02*
X132080000Y-107390000D01*
X130660000Y-114660000D02*
X130660000Y-106440000D01*
X130660000Y-106440000D02*
X132080000Y-106440000D01*
%TO.C,Q2*%
X139538480Y-52997844D02*
G75*
G02*
X140302156Y-53761520I3761520J2997844D01*
G01*
X139538480Y-52997844D02*
X138725307Y-53811018D01*
X138725307Y-53811018D02*
X139488982Y-54574693D01*
X139488982Y-54574693D02*
X140302156Y-53761520D01*
%TO.C,J4*%
X78352500Y-26825000D02*
X78352500Y-29025000D01*
X78692500Y-27115000D02*
X78692500Y-29025000D01*
X78692500Y-27115000D02*
X86822500Y-27115000D01*
X78692500Y-29025000D02*
X78692500Y-33855000D01*
X79652500Y-26825000D02*
X78352500Y-26825000D01*
X79962500Y-25725000D02*
X85552500Y-25725000D01*
X79962500Y-25975000D02*
X85552500Y-25975000D01*
X79962500Y-26865000D02*
X85552500Y-26865000D01*
X79962500Y-27115000D02*
X79962500Y-25725000D01*
X82372500Y-33595000D02*
X83142500Y-33595000D01*
X82372500Y-33855000D02*
X78692500Y-33855000D01*
X82372500Y-33855000D02*
X82372500Y-33595000D01*
X83142500Y-33595000D02*
X83142500Y-33855000D01*
X83142500Y-33855000D02*
X86822500Y-33855000D01*
X85552500Y-27115000D02*
X85552500Y-25725000D01*
X86822500Y-27115000D02*
X86822500Y-29025000D01*
X86822500Y-33855000D02*
X86822500Y-29025000D01*
%TD*%
M02*
