M48
; DRILL file {KiCad 9.0.2} date 2025-07-16T12:35:08-0500
; FORMAT={-:-/ absolute / metric / decimal}
; #@! TF.CreationDate,2025-07-16T12:35:08-05:00
; #@! TF.GenerationSoftware,Kicad,Pcbnew,9.0.2
; #@! TF.FileFunction,Plated,1,2,PTH
FMAT,2
METRIC
; #@! TA.AperFunction,Plated,PTH,ComponentDrill
T1C0.700
; #@! TA.AperFunction,Plated,PTH,ComponentDrill
T2C0.762
; #@! TA.AperFunction,Plated,PTH,ComponentDrill
T3C0.800
; #@! TA.AperFunction,Plated,PTH,ComponentDrill
T4C1.000
; #@! TA.AperFunction,Plated,PTH,ComponentDrill
T5C1.020
; #@! TA.AperFunction,Plated,PTH,ComponentDrill
T6C1.750
; #@! TA.AperFunction,Plated,PTH,ComponentDrill
T7C1.800
%
G90
G05
T1
X140.96Y-64.0
X143.3Y-47.46
X143.3Y-52.54
X143.5Y-61.46
X143.5Y-66.54
X145.84Y-50.0
T2
X71.84Y-81.095
X74.38Y-81.095
X76.92Y-81.095
X79.46Y-81.095
X82.0Y-81.095
X84.54Y-81.095
T3
X124.92Y-50.0
X125.12Y-64.04
X135.08Y-50.0
X135.28Y-64.04
T4
X152.315Y-61.725
X152.315Y-64.265
X154.7Y-49.0
X162.3Y-49.0
T5
X94.8Y-46.485
X94.8Y-49.025
X94.8Y-51.565
X94.8Y-54.105
X94.8Y-56.645
X94.8Y-59.185
X94.8Y-61.725
X94.8Y-64.265
X94.8Y-66.805
X94.8Y-69.345
X94.8Y-71.885
X94.8Y-74.425
X94.8Y-76.965
X94.8Y-79.505
X94.8Y-82.045
X120.2Y-46.485
X120.2Y-49.025
X120.2Y-51.565
X120.2Y-54.105
X120.2Y-56.645
X120.2Y-59.185
X120.2Y-61.725
X120.2Y-64.265
X120.2Y-66.805
X120.2Y-69.345
X120.2Y-71.885
X120.2Y-74.425
X120.2Y-76.965
X120.2Y-79.505
X120.2Y-82.045
T6
X76.62Y-49.5
X80.5Y-49.5
X80.528Y-63.75
X80.852Y-29.025
X84.407Y-63.75
X84.733Y-29.025
T7
X133.12Y-110.5
X137.08Y-110.5
X141.04Y-110.5
X145.0Y-110.5
X148.96Y-110.5
M30
