<?xml version="1.0" standalone="no"?>
 <!DOCTYPE svg PUBLIC "-//W3C//DTD SVG 1.1//EN" 
 "http://www.w3.org/Graphics/SVG/1.1/DTD/svg11.dtd"> 
<svg
  xmlns:svg="http://www.w3.org/2000/svg"
  xmlns="http://www.w3.org/2000/svg"
  xmlns:xlink="http://www.w3.org/1999/xlink"
  version="1.1"
  width="297.0022mm" height="210.0072mm" viewBox="0.0000 0.0000 297.0022 210.0072">
<title>SVG Image created as Bastón guiador con detección-B_Cu.svg date 2025/07/20 19:30:47 </title>
  <desc>Image generated by PCBNEW </desc>
<g style="fill:#000000; fill-opacity:1.0000;stroke:#000000; stroke-opacity:1.0000;
stroke-linecap:round; stroke-linejoin:round;"
 transform="translate(0 0) scale(1 1)">
<path style="fill:#000000; fill-opacity:1.0000; stroke:none;fill-rule:evenodd;"
d="M 75.1200,51.0000
75.1200,48.0000
78.1200,48.0000
78.1200,51.0000
Z" /> 
</g>
<g style="fill:#000000; fill-opacity:1.0000; stroke:none;">
<circle cx="80.5000" cy="49.5000" r="1.5000" /> 
<path style="fill:#000000; fill-opacity:1.0000; stroke:none;fill-rule:evenodd;"
d="M 85.9075,62.2500
85.9075,65.2500
82.9075,65.2500
82.9075,62.2500
Z" /> 
</g>
<g style="fill:#000000; fill-opacity:1.0000; stroke:none;">
<circle cx="80.5275" cy="63.7500" r="1.5000" /> 
<path style="fill:#000000; fill-opacity:1.0000; stroke:none;fill-rule:evenodd;"
d="M 93.8000,47.4850
93.8000,45.4850
95.8000,45.4850
95.8000,47.4850
Z" /> 
</g>
<g style="fill:#000000; fill-opacity:1.0000; stroke:none;">
<circle cx="94.8000" cy="49.0250" r="1.0000" /> 
</g>
<g style="fill:#000000; fill-opacity:1.0000; stroke:none;">
<circle cx="94.8000" cy="51.5650" r="1.0000" /> 
</g>
<g style="fill:#000000; fill-opacity:1.0000; stroke:none;">
<circle cx="94.8000" cy="54.1050" r="1.0000" /> 
</g>
<g style="fill:#000000; fill-opacity:1.0000; stroke:none;">
<circle cx="94.8000" cy="56.6450" r="1.0000" /> 
</g>
<g style="fill:#000000; fill-opacity:1.0000; stroke:none;">
<circle cx="94.8000" cy="59.1850" r="1.0000" /> 
</g>
<g style="fill:#000000; fill-opacity:1.0000; stroke:none;">
<circle cx="94.8000" cy="61.7250" r="1.0000" /> 
</g>
<g style="fill:#000000; fill-opacity:1.0000; stroke:none;">
<circle cx="94.8000" cy="64.2650" r="1.0000" /> 
</g>
<g style="fill:#000000; fill-opacity:1.0000; stroke:none;">
<circle cx="94.8000" cy="66.8050" r="1.0000" /> 
</g>
<g style="fill:#000000; fill-opacity:1.0000; stroke:none;">
<circle cx="94.8000" cy="69.3450" r="1.0000" /> 
</g>
<g style="fill:#000000; fill-opacity:1.0000; stroke:none;">
<circle cx="94.8000" cy="71.8850" r="1.0000" /> 
</g>
<g style="fill:#000000; fill-opacity:1.0000; stroke:none;">
<circle cx="94.8000" cy="74.4250" r="1.0000" /> 
</g>
<g style="fill:#000000; fill-opacity:1.0000; stroke:none;">
<circle cx="94.8000" cy="76.9650" r="1.0000" /> 
</g>
<g style="fill:#000000; fill-opacity:1.0000; stroke:none;">
<circle cx="94.8000" cy="79.5050" r="1.0000" /> 
</g>
<g style="fill:#000000; fill-opacity:1.0000; stroke:none;">
<circle cx="94.8000" cy="82.0450" r="1.0000" /> 
</g>
<g style="fill:#000000; fill-opacity:1.0000; stroke:none;">
<circle cx="120.2000" cy="82.0450" r="1.0000" /> 
</g>
<g style="fill:#000000; fill-opacity:1.0000; stroke:none;">
<circle cx="120.2000" cy="79.5050" r="1.0000" /> 
</g>
<g style="fill:#000000; fill-opacity:1.0000; stroke:none;">
<circle cx="120.2000" cy="76.9650" r="1.0000" /> 
</g>
<g style="fill:#000000; fill-opacity:1.0000; stroke:none;">
<circle cx="120.2000" cy="74.4250" r="1.0000" /> 
</g>
<g style="fill:#000000; fill-opacity:1.0000; stroke:none;">
<circle cx="120.2000" cy="71.8850" r="1.0000" /> 
</g>
<g style="fill:#000000; fill-opacity:1.0000; stroke:none;">
<circle cx="120.2000" cy="69.3450" r="1.0000" /> 
</g>
<g style="fill:#000000; fill-opacity:1.0000; stroke:none;">
<circle cx="120.2000" cy="66.8050" r="1.0000" /> 
</g>
<g style="fill:#000000; fill-opacity:1.0000; stroke:none;">
<circle cx="120.2000" cy="64.2650" r="1.0000" /> 
</g>
<g style="fill:#000000; fill-opacity:1.0000; stroke:none;">
<circle cx="120.2000" cy="61.7250" r="1.0000" /> 
</g>
<g style="fill:#000000; fill-opacity:1.0000; stroke:none;">
<circle cx="120.2000" cy="59.1850" r="1.0000" /> 
</g>
<g style="fill:#000000; fill-opacity:1.0000; stroke:none;">
<circle cx="120.2000" cy="56.6450" r="1.0000" /> 
</g>
<g style="fill:#000000; fill-opacity:1.0000; stroke:none;">
<circle cx="120.2000" cy="54.1050" r="1.0000" /> 
</g>
<g style="fill:#000000; fill-opacity:1.0000; stroke:none;">
<circle cx="120.2000" cy="51.5650" r="1.0000" /> 
</g>
<g style="fill:#000000; fill-opacity:1.0000; stroke:none;">
<circle cx="120.2000" cy="49.0250" r="1.0000" /> 
</g>
<g style="fill:#000000; fill-opacity:1.0000; stroke:none;">
<circle cx="120.2000" cy="46.4850" r="1.0000" /> 
</g>
<g style="fill:#000000; fill-opacity:1.0000; stroke:none;">
<circle cx="125.1200" cy="64.0400" r="0.8000" /> 
</g>
<g style="fill:#000000; fill-opacity:1.0000; stroke:none;">
<circle cx="135.2800" cy="64.0400" r="0.8000" /> 
</g>
<g style="fill:#000000; fill-opacity:1.0000; stroke:none;">
<circle cx="124.9200" cy="50.0000" r="0.8000" /> 
</g>
<g style="fill:#000000; fill-opacity:1.0000; stroke:none;">
<circle cx="135.0800" cy="50.0000" r="0.8000" /> 
<path style="fill:#000000; fill-opacity:1.0000; stroke:none;fill-rule:evenodd;"
d="M 131.8900,109.3500
131.9090,109.2543
131.9632,109.1732
132.0443,109.1190
132.1400,109.1000
134.1000,109.1000
134.1957,109.1190
134.2768,109.1732
134.3310,109.2543
134.3500,109.3500
134.3500,111.6500
134.3310,111.7457
134.2768,111.8268
134.1957,111.8810
134.1000,111.9000
132.1400,111.9000
132.0443,111.8810
131.9632,111.8268
131.9090,111.7457
131.8900,111.6500
Z" /> 
</g>
<g style="fill:none; 
stroke:#000000; stroke-width:2.4600; stroke-opacity:1; 
stroke-linecap:round; stroke-linejoin:round;">
<path d="M137.0800 110.3300
L137.0800 110.6700
" />
<path d="M141.0400 110.3300
L141.0400 110.6700
" />
<path d="M145.0000 110.3300
L145.0000 110.6700
" />
<path d="M148.9600 110.3300
L148.9600 110.6700
" />
<path style="fill:#000000; fill-opacity:1.0000; stroke:none;fill-rule:evenodd;"
d="M 163.3000,48.0000
163.3000,50.0000
161.3000,50.0000
161.3000,48.0000
Z" /> 
</g>
<g style="fill:#000000; fill-opacity:1.0000; stroke:none;">
<circle cx="154.7000" cy="49.0000" r="1.0000" /> 
</g>
<g style="fill:none; 
stroke:#000000; stroke-width:1.2000; stroke-opacity:1; 
stroke-linecap:round; stroke-linejoin:round;">
<path d="M143.3000 52.7400
L143.3000 52.3400
" />
</g>
<g style="fill:#000000; fill-opacity:1.0000; stroke:none;">
<circle cx="145.8400" cy="50.0000" r="0.6000" /> 
</g>
<g style="fill:#000000; fill-opacity:1.0000; stroke:none;">
<circle cx="143.3000" cy="47.4600" r="0.6000" /> 
<path style="fill:#000000; fill-opacity:1.0000; stroke:none;fill-rule:evenodd;"
d="M 79.3525,30.5250
79.3525,27.5250
82.3525,27.5250
82.3525,30.5250
Z" /> 
</g>
<g style="fill:#000000; fill-opacity:1.0000; stroke:none;">
<circle cx="84.7325" cy="29.0250" r="1.5000" /> 
</g>
<g style="fill:none; 
stroke:#000000; stroke-width:1.2000; stroke-opacity:1; 
stroke-linecap:round; stroke-linejoin:round;">
<path d="M143.5000 61.2600
L143.5000 61.6600
" />
</g>
<g style="fill:#000000; fill-opacity:1.0000; stroke:none;">
<circle cx="140.9600" cy="64.0000" r="0.6000" /> 
</g>
<g style="fill:#000000; fill-opacity:1.0000; stroke:none;">
<circle cx="143.5000" cy="66.5400" r="0.6000" /> 
<path style="fill:#000000; fill-opacity:1.0000; stroke:none;fill-rule:evenodd;"
d="M 151.4650,62.5750
151.4650,60.8750
153.1650,60.8750
153.1650,62.5750
Z" /> 
</g>
<g style="fill:#000000; fill-opacity:1.0000; stroke:none;">
<circle cx="152.3150" cy="64.2650" r="0.8500" /> 
</g>
<g style="fill:#000000; fill-opacity:1.0000; stroke:none;">
<circle cx="84.5400" cy="81.0950" r="0.7620" /> 
</g>
<g style="fill:#000000; fill-opacity:1.0000; stroke:none;">
<circle cx="82.0000" cy="81.0950" r="0.7620" /> 
</g>
<g style="fill:#000000; fill-opacity:1.0000; stroke:none;">
<circle cx="79.4600" cy="81.0950" r="0.7620" /> 
</g>
<g style="fill:#000000; fill-opacity:1.0000; stroke:none;">
<circle cx="76.9200" cy="81.0950" r="0.7620" /> 
</g>
<g style="fill:#000000; fill-opacity:1.0000; stroke:none;">
<circle cx="74.3800" cy="81.0950" r="0.7620" /> 
</g>
<g style="fill:#000000; fill-opacity:1.0000; stroke:none;">
<circle cx="71.8400" cy="81.0950" r="0.7620" /> 
</g>
<g style="fill:none; 
stroke:#000000; stroke-width:1.0000; stroke-opacity:1; 
stroke-linecap:round; stroke-linejoin:round;">
<path d="M76.6200 49.5000
L76.6200 80.7950
" />
<path d="M76.6200 80.7950
L76.9200 81.0950
" />
</g>
<g style="fill:none; 
stroke:#000000; stroke-width:0.6000; stroke-opacity:1; 
stroke-linecap:round; stroke-linejoin:round;">
<path d="M137.0800 82.5472
L123.8778 69.3450
" />
<path d="M137.0800 110.5000
L137.0800 82.5472
" />
<path d="M123.8778 69.3450
L120.2000 69.3450
" />
<path d="M141.0400 81.5400
L126.3050 66.8050
" />
<path d="M141.0400 110.5000
L141.0400 81.5400
" />
<path d="M126.3050 66.8050
L120.2000 66.8050
" />
<path d="M133.1200 110.5000
L116.5810 93.9610
" />
<path d="M162.3000 49.0000
L162.3000 51.7400
" />
<path d="M116.5810 93.9610
L116.5810 50.1040
" />
<path d="M158.7850 45.4850
L162.3000 49.0000
" />
<path d="M101.2450 110.5000
L71.8400 81.0950
" />
<path d="M116.5810 50.1040
L120.2000 46.4850
" />
<path d="M162.3000 51.7400
L152.3150 61.7250
" />
<path d="M133.1200 110.5000
L101.2450 110.5000
" />
<path d="M121.2000 45.4850
L158.7850 45.4850
" />
<path d="M120.2000 46.4850
L121.2000 45.4850
" />
</g>
<g style="fill:none; 
stroke:#000000; stroke-width:1.0000; stroke-opacity:1; 
stroke-linecap:round; stroke-linejoin:round;">
<path d="M84.5400 81.4600
L84.5000 81.5000
" />
<path d="M84.5000 81.5000
L84.4075 81.4075
" />
<path d="M84.5400 81.0950
L84.5400 81.4600
" />
<path d="M84.4075 81.4075
L84.4075 63.7500
" />
</g>
<g style="fill:none; 
stroke:#000000; stroke-width:0.6000; stroke-opacity:1; 
stroke-linecap:round; stroke-linejoin:round;">
<path d="M94.8000 64.2650
L88.2300 57.6950
" />
<path d="M88.2300 32.5225
L84.7325 29.0250
" />
<path d="M88.2300 57.6950
L88.2300 32.5225
" />
<path d="M140.9200 64.0400
L140.9600 64.0000
" />
<path d="M135.2800 64.0400
L140.9200 64.0400
" />
<path d="M135.0800 50.0000
L145.8400 50.0000
" />
<path d="M145.7900 50.0500
L145.8400 50.0000
" />
<path d="M125.1200 64.0400
L120.2650 59.1850
" />
<path d="M120.2650 59.1850
L120.2000 59.1850
" />
<path d="M121.7650 50.0000
L120.2000 51.5650
" />
<path d="M124.9200 50.0000
L121.7650 50.0000
" />
<path d="M153.1600 47.4600
L154.7000 49.0000
" />
<path d="M143.3000 47.4600
L153.1600 47.4600
" />
<path d="M143.5000 66.5400
L148.5800 66.5400
" />
<path d="M150.0800 66.5400
L152.3150 64.3050
" />
<path d="M148.5800 66.5400
L150.0800 66.5400
" />
<path style="fill:#000000; fill-opacity:1.0000; stroke:none;fill-rule:evenodd;"
d="M 166.4425,21.0202
166.4883,21.0730
166.4995,21.1245
166.4995,119.8755
166.4798,119.9425
166.4270,119.9883
166.3755,119.9995
67.6245,119.9995
67.5575,119.9798
67.5117,119.9270
67.5005,119.8755
67.5005,114.3787
71.6495,114.3787
71.6495,114.6213
71.6812,114.8618
71.7439,115.0961
71.7964,115.2227
71.8368,115.3202
71.9581,115.5303
71.9581,115.5303
71.9581,115.5303
72.1057,115.7227
72.1057,115.7227
72.2773,115.8943
72.2773,115.8943
72.4697,116.0419
72.6798,116.1632
72.9039,116.2561
73.1382,116.3188
73.3186,116.3426
73.3787,116.3505
73.3787,116.3505
73.6213,116.3505
73.6694,116.3442
73.8618,116.3188
74.0961,116.2561
74.3202,116.1632
74.5303,116.0419
74.7227,115.8943
74.8943,115.7227
75.0419,115.5303
75.1632,115.3202
75.2561,115.0961
75.3188,114.8618
75.3505,114.6213
75.3505,114.3787
75.3188,114.1382
75.2561,113.9039
75.1632,113.6798
75.0419,113.4697
74.8943,113.2773
74.8943,113.2773
74.7227,113.1057
74.7227,113.1057
74.5303,112.9581
74.5303,112.9581
74.5303,112.9581
74.3202,112.8368
74.3202,112.8368
74.0961,112.7439
73.8618,112.6812
73.6213,112.6495
73.6213,112.6495
73.3787,112.6495
73.3787,112.6495
73.1382,112.6812
72.9039,112.7439
72.6798,112.8368
72.6798,112.8368
72.4697,112.9581
72.2773,113.1057
72.2773,113.1057
72.1057,113.2773
72.1057,113.2773
71.9581,113.4697
71.8368,113.6798
71.8368,113.6798
71.7439,113.9039
71.6812,114.1382
71.6495,114.3787
67.5005,114.3787
67.5005,80.9720
70.2775,80.9720
70.2775,81.2180
70.2877,81.2823
70.3160,81.4609
70.3920,81.6948
70.3920,81.6948
70.5036,81.9139
70.6482,82.1129
70.6482,82.1129
70.8221,82.2868
70.8221,82.2868
70.9738,82.3970
71.0211,82.4314
71.1643,82.5044
71.2402,82.5430
71.2402,82.5430
71.3572,82.5810
71.4741,82.6190
71.7170,82.6575
71.7948,82.6575
71.8618,82.6772
71.8825,82.6938
100.4056,111.2169
100.5281,111.3394
100.6682,111.4412
100.8226,111.5199
100.9873,111.5734
101.1584,111.6005
130.9672,111.6005
131.0342,111.6202
131.0799,111.6730
131.0906,111.7123
131.1047,111.8559
131.1047,111.8559
131.1648,112.0540
131.2623,112.2364
131.2623,112.2365
131.3936,112.3964
131.4687,112.4581
131.5122,112.4937
131.5515,112.5515
131.5534,112.6213
131.5172,112.6811
131.4577,112.7112
131.3136,112.7399
131.3136,112.7399
131.1224,112.8191
130.9503,112.9340
130.8040,113.0803
130.6891,113.2524
130.6099,113.4436
130.6099,113.4436
130.5695,113.6465
130.5695,113.8535
130.6099,114.0564
130.6099,114.0564
130.6891,114.2476
130.8040,114.4197
130.9503,114.5660
130.9503,114.5660
131.1224,114.6809
131.3136,114.7601
131.5165,114.8005
131.5165,114.8005
131.5165,114.8005
131.7235,114.8005
131.7235,114.8005
131.9264,114.7601
132.1176,114.6809
132.2897,114.5660
132.4360,114.4197
132.5509,114.2476
132.6301,114.0564
132.6655,113.8787
159.1495,113.8787
159.1495,114.1213
159.1812,114.3618
159.2439,114.5961
159.3286,114.8005
159.3368,114.8202
159.4581,115.0303
159.4581,115.0303
159.4581,115.0303
159.6057,115.2227
159.6057,115.2227
159.7773,115.3943
159.7773,115.3943
159.9697,115.5419
160.1798,115.6632
160.4039,115.7561
160.6382,115.8188
160.8186,115.8426
160.8787,115.8505
160.8787,115.8505
161.1213,115.8505
161.1694,115.8442
161.3618,115.8188
161.5961,115.7561
161.8202,115.6632
162.0303,115.5419
162.2227,115.3943
162.3943,115.2227
162.5419,115.0303
162.6632,114.8202
162.7561,114.5961
162.8188,114.3618
162.8505,114.1213
162.8505,113.8787
162.8188,113.6382
162.7561,113.4039
162.6632,113.1798
162.5419,112.9697
162.3943,112.7773
162.3943,112.7773
162.2227,112.6057
162.2227,112.6057
162.0303,112.4581
162.0303,112.4581
162.0303,112.4581
161.8202,112.3368
161.8202,112.3368
161.5961,112.2439
161.4317,112.1999
161.3618,112.1812
161.3618,112.1812
161.3618,112.1812
161.1213,112.1495
161.1213,112.1495
160.8787,112.1495
160.8787,112.1495
160.6382,112.1812
160.4039,112.2439
160.1798,112.3368
160.1798,112.3368
159.9697,112.4581
159.7773,112.6057
159.7773,112.6057
159.6057,112.7773
159.6057,112.7773
159.4581,112.9697
159.3368,113.1798
159.3368,113.1798
159.2439,113.4039
159.1812,113.6382
159.1495,113.8787
132.6655,113.8787
132.6705,113.8535
132.6705,113.6465
132.6301,113.4436
132.5509,113.2524
132.4360,113.0803
132.4360,113.0803
132.2897,112.9340
132.2897,112.9340
132.2800,112.9276
132.2352,112.8740
132.2265,112.8047
132.2567,112.7416
132.3161,112.7049
132.3489,112.7005
134.1516,112.7005
134.1516,112.7005
134.3059,112.6853
134.5040,112.6252
134.6865,112.5277
134.8464,112.3964
134.9777,112.2364
135.0752,112.0540
135.1353,111.8559
135.1390,111.8186
135.1651,111.7538
135.2222,111.7135
135.2920,111.7104
135.3524,111.7455
135.3698,111.7688
135.3881,111.8005
135.3881,111.8005
135.3881,111.8005
135.5501,112.0117
135.5501,112.0117
135.7383,112.1999
135.7383,112.1999
135.7383,112.1999
135.7957,112.2439
135.9495,112.3619
135.9495,112.3619
135.9495,112.3619
136.1800,112.4950
136.1800,112.4950
136.1800,112.4950
136.4259,112.5969
136.4259,112.5969
136.4259,112.5969
136.6830,112.6658
136.8809,112.6918
136.9469,112.7005
136.9469,112.7005
137.2131,112.7005
137.2659,112.6936
137.4770,112.6658
137.7341,112.5969
137.9800,112.4950
138.2105,112.3619
138.4217,112.1999
138.4217,112.1999
138.4217,112.1999
138.6099,112.0117
138.6099,112.0117
138.6099,112.0117
138.7719,111.8005
138.9050,111.5700
138.9258,111.5199
138.9454,111.4724
138.9893,111.4180
139.0556,111.3959
139.1233,111.4132
139.1709,111.4643
139.1746,111.4724
139.2150,111.5700
139.2150,111.5700
139.2440,111.6202
139.3481,111.8005
139.3481,111.8005
139.3481,111.8005
139.5101,112.0117
139.5101,112.0117
139.6983,112.1999
139.6983,112.1999
139.6983,112.1999
139.7557,112.2439
139.9095,112.3619
139.9095,112.3619
139.9095,112.3619
140.1400,112.4950
140.1400,112.4950
140.1400,112.4950
140.3859,112.5969
140.3859,112.5969
140.3859,112.5969
140.6430,112.6658
140.8409,112.6918
140.9069,112.7005
140.9069,112.7005
141.1731,112.7005
141.2259,112.6936
141.4370,112.6658
141.6941,112.5969
141.9400,112.4950
142.1705,112.3619
142.3817,112.1999
142.3817,112.1999
142.3817,112.1999
142.5699,112.0117
142.5699,112.0117
142.5699,112.0117
142.7319,111.8005
142.8650,111.5700
142.8858,111.5199
142.9054,111.4724
142.9493,111.4180
143.0156,111.3959
143.0833,111.4132
143.1309,111.4643
143.1346,111.4724
143.1750,111.5700
143.1750,111.5700
143.2040,111.6202
143.3081,111.8005
143.3081,111.8005
143.3081,111.8005
143.4701,112.0117
143.4701,112.0117
143.6583,112.1999
143.6583,112.1999
143.6583,112.1999
143.7157,112.2439
143.8695,112.3619
143.8695,112.3619
143.8695,112.3619
144.1000,112.4950
144.1000,112.4950
144.1000,112.4950
144.3459,112.5969
144.3459,112.5969
144.3459,112.5969
144.6030,112.6658
144.8009,112.6918
144.8669,112.7005
144.8669,112.7005
145.1331,112.7005
145.1859,112.6936
145.3970,112.6658
145.6541,112.5969
145.9000,112.4950
146.1305,112.3619
146.3417,112.1999
146.3417,112.1999
146.3417,112.1999
146.5299,112.0117
146.5299,112.0117
146.5299,112.0117
146.6919,111.8005
146.8250,111.5700
146.9269,111.3241
146.9958,111.0670
147.0305,110.8031
147.0305,110.1969
146.9958,109.9330
146.9269,109.6759
146.8971,109.6041
146.8250,109.4300
146.8250,109.4300
146.8250,109.4300
146.6919,109.1995
146.6830,109.1878
146.5299,108.9883
146.5299,108.9883
146.3417,108.8001
146.3417,108.8001
146.1305,108.6381
146.1305,108.6381
146.1305,108.6381
146.0574,108.5958
145.9000,108.5050
145.9000,108.5050
145.6541,108.4031
145.3970,108.3342
145.1331,108.2995
145.1331,108.2995
144.8669,108.2995
144.8669,108.2995
144.6030,108.3342
144.3459,108.4031
144.1000,108.5050
144.1000,108.5050
143.8695,108.6381
143.8695,108.6381
143.6583,108.8001
143.4701,108.9883
143.3081,109.1995
143.3081,109.1995
143.1750,109.4300
143.1750,109.4300
143.1346,109.5276
143.0907,109.5820
143.0244,109.6041
142.9567,109.5868
142.9091,109.5357
142.9054,109.5276
142.8650,109.4300
142.8650,109.4300
142.8650,109.4300
142.7319,109.1995
142.7230,109.1878
142.5699,108.9883
142.5699,108.9883
142.3817,108.8001
142.3817,108.8001
142.1890,108.6523
142.1478,108.5958
142.1405,108.5539
142.1405,81.4534
142.1134,81.2823
142.1134,81.2823
142.0599,81.1176
141.9812,80.9632
141.8794,80.8231
141.7569,80.7006
127.0219,65.9656
126.8818,65.8638
126.7274,65.7851
126.5627,65.7316
126.5627,65.7316
126.5627,65.7316
126.4313,65.7108
126.3916,65.7045
126.3916,65.7045
125.8951,65.7045
125.8281,65.6848
125.7823,65.6320
125.7724,65.5629
125.8014,65.4993
125.8388,65.4700
125.9588,65.4089
126.1627,65.2608
126.3408,65.0827
126.4889,64.8788
126.6032,64.6544
126.6811,64.4148
126.7205,64.1660
126.7205,63.9140
133.6795,63.9140
133.6795,64.1660
133.7189,64.4148
133.7968,64.6544
133.9111,64.8788
134.0592,65.0826
134.0592,65.0827
134.2373,65.2608
134.2373,65.2608
134.3822,65.3660
134.4412,65.4089
134.5612,65.4700
134.6656,65.5232
134.6656,65.5232
134.6656,65.5232
134.9052,65.6011
135.1540,65.6405
135.1540,65.6405
135.4060,65.6405
135.4060,65.6405
135.6548,65.6011
135.8944,65.5232
136.1188,65.4089
136.3227,65.2608
136.4066,65.1768
136.4680,65.1433
136.4943,65.1405
140.1068,65.1405
140.1738,65.1602
140.1797,65.1642
140.1971,65.1768
140.2260,65.1978
140.3496,65.2608
140.4224,65.2979
140.4224,65.2979
140.5272,65.3320
140.6320,65.3660
140.8498,65.4005
140.8498,65.4005
141.0702,65.4005
141.0702,65.4005
141.2880,65.3660
141.4976,65.2979
141.6940,65.1978
141.8724,65.0682
142.0282,64.9124
142.1578,64.7340
142.2579,64.5376
142.3260,64.3280
142.3605,64.1102
142.3605,63.8898
142.3260,63.6720
142.2579,63.4624
142.2579,63.4624
142.2232,63.3944
142.1578,63.2660
142.1382,63.2390
142.0282,63.0876
142.0282,63.0876
141.8724,62.9318
141.8724,62.9318
141.6940,62.8022
141.6940,62.8022
141.6940,62.8022
141.6311,62.7701
141.4976,62.7021
141.4976,62.7021
141.2880,62.6340
141.1791,62.6167
141.0702,62.5995
140.8498,62.5995
140.7772,62.6110
140.6320,62.6340
140.4224,62.7021
140.4224,62.7021
140.2260,62.8022
140.0696,62.9158
140.0038,62.9393
139.9967,62.9395
136.4943,62.9395
136.4273,62.9198
136.4066,62.9032
136.3227,62.8192
136.3226,62.8192
136.1188,62.6711
136.1188,62.6711
136.1188,62.6711
136.0184,62.6200
135.8944,62.5568
135.6548,62.4789
135.6477,62.4778
135.4060,62.4395
135.1540,62.4395
135.0489,62.4562
134.9052,62.4789
134.6656,62.5568
134.4412,62.6711
134.2373,62.8192
134.2373,62.8192
134.0592,62.9973
134.0592,62.9973
133.9111,63.2012
133.7968,63.4256
133.7189,63.6652
133.6795,63.9140
126.7205,63.9140
126.6811,63.6652
126.6032,63.4256
126.6032,63.4256
126.6032,63.4256
126.5587,63.3382
126.4889,63.2012
126.4700,63.1751
126.3408,62.9973
126.3408,62.9973
126.1627,62.8192
126.1626,62.8192
125.9588,62.6711
125.9588,62.6711
125.9588,62.6711
125.8584,62.6200
125.7344,62.5568
125.4948,62.4789
125.4877,62.4778
125.2460,62.4395
125.2460,62.4395
125.1272,62.4395
125.0602,62.4198
125.0395,62.4032
122.0365,59.4001
122.0030,59.3388
122.0006,59.3071
122.0005,59.3071
122.0005,59.3055
122.0004,59.3043
122.0005,59.3030
122.0005,59.3030
122.0005,59.0670
121.9697,58.8330
121.9086,58.6050
121.8183,58.3870
121.8183,58.3869
121.8183,58.3869
121.7761,58.3139
121.7003,58.1825
121.6503,58.1174
121.5541,57.9921
121.5553,57.9912
121.5285,57.9334
121.5380,57.8642
121.5546,57.8383
121.5541,57.8379
121.6088,57.7666
121.7003,57.6474
121.8183,57.4430
121.9086,57.2250
121.9697,56.9970
122.0005,56.7630
122.0005,56.5270
121.9697,56.2930
121.9086,56.0650
121.8183,55.8470
121.8183,55.8469
121.8183,55.8469
121.7761,55.7739
121.7003,55.6425
121.6671,55.5993
121.5541,55.4521
121.5553,55.4512
121.5285,55.3934
121.5380,55.3242
121.5546,55.2983
121.5541,55.2979
121.6088,55.2266
121.7003,55.1075
121.8183,54.9030
121.9086,54.6850
121.9697,54.4570
122.0005,54.2230
122.0005,53.9870
121.9697,53.7530
121.9086,53.5250
121.8183,53.3070
121.8183,53.3069
121.8183,53.3069
121.7761,53.2339
121.7003,53.1026
121.6671,53.0593
121.5541,52.9121
121.5553,52.9112
121.5285,52.8534
121.5380,52.7842
121.5546,52.7583
121.5541,52.7579
121.6088,52.6866
121.7003,52.5675
121.8183,52.3630
121.9086,52.1450
121.9697,51.9170
122.0005,51.6830
122.0005,51.4470
121.9938,51.3961
121.9944,51.3924
121.9931,51.3888
121.9997,51.3581
122.0046,51.3271
122.0073,51.3232
122.0079,51.3205
122.0291,51.2923
122.1845,51.1368
122.2458,51.1033
122.2722,51.1005
123.7057,51.1005
123.7727,51.1202
123.7934,51.1368
123.8773,51.2208
123.8773,51.2208
124.0183,51.3232
124.0812,51.3689
124.2242,51.4417
124.3056,51.4832
124.3056,51.4832
124.3056,51.4832
124.5452,51.5611
124.7940,51.6005
124.7940,51.6005
125.0460,51.6005
125.0460,51.6005
125.2948,51.5611
125.5344,51.4832
125.7588,51.3689
125.9627,51.2208
126.1408,51.0427
126.2889,50.8388
126.4032,50.6144
126.4811,50.3748
126.5205,50.1260
126.5205,49.8740
126.4811,49.6252
126.4032,49.3856
126.4032,49.3856
126.4032,49.3856
126.3423,49.2660
126.2889,49.1612
126.2355,49.0876
126.1408,48.9573
126.1408,48.9573
125.9627,48.7792
125.9626,48.7792
125.7588,48.6311
125.7588,48.6311
125.7588,48.6311
125.6683,48.5850
125.5344,48.5168
125.2948,48.4389
125.1754,48.4200
125.0460,48.3995
124.7940,48.3995
124.6696,48.4192
124.5452,48.4389
124.3056,48.5168
124.0812,48.6311
123.8773,48.7792
123.8773,48.7792
123.7934,48.8632
123.7320,48.8967
123.7057,48.8995
121.8516,48.8995
121.6784,48.8995
121.5928,48.9130
121.5073,48.9266
121.3425,48.9801
121.1882,49.0588
121.1083,49.1169
121.0481,49.1606
121.0481,49.1606
121.0481,49.1606
120.4727,49.7359
120.4114,49.7694
120.3689,49.7712
120.3180,49.7645
120.3180,49.7645
120.0820,49.7645
120.0820,49.7645
120.0820,49.7645
119.8480,49.7953
119.6200,49.8564
119.4020,49.9467
119.4019,49.9467
119.1975,50.0647
119.0103,50.2084
119.0103,50.2084
118.8434,50.3753
118.8434,50.3753
118.6997,50.5625
118.5817,50.7669
118.5817,50.7670
118.4914,50.9850
118.4303,51.2130
118.4056,51.4005
118.3995,51.4470
118.3995,51.4470
118.3995,51.6830
118.3995,51.6830
118.4303,51.9170
118.4914,52.1450
118.5817,52.3630
118.5817,52.3631
118.6359,52.4569
118.6997,52.5675
118.6997,52.5675
118.6997,52.5675
118.8459,52.7579
118.8447,52.7588
118.8715,52.8167
118.8620,52.8859
118.8454,52.9117
118.8459,52.9121
118.6997,53.1025
118.5817,53.3069
118.5817,53.3070
118.4914,53.5250
118.4303,53.7530
118.3995,53.9870
118.3995,53.9870
118.3995,54.2230
118.3995,54.2230
118.4303,54.4570
118.4914,54.6850
118.5817,54.9030
118.5817,54.9031
118.6527,55.0260
118.6997,55.1075
118.6997,55.1075
118.6997,55.1075
118.8459,55.2979
118.8447,55.2988
118.8715,55.3567
118.8620,55.4259
118.8454,55.4517
118.8459,55.4521
118.6997,55.6425
118.5817,55.8469
118.5817,55.8470
118.4914,56.0650
118.4303,56.2930
118.3995,56.5270
118.3995,56.5270
118.3995,56.7630
118.3995,56.7630
118.4303,56.9970
118.4914,57.2250
118.5817,57.4430
118.5817,57.4431
118.6527,57.5660
118.6997,57.6474
118.6997,57.6475
118.6997,57.6475
118.8459,57.8379
118.8447,57.8388
118.8715,57.8967
118.8620,57.9659
118.8454,57.9917
118.8459,57.9921
118.6997,58.1825
118.5817,58.3869
118.5817,58.3870
118.4914,58.6050
118.4303,58.8330
118.3995,59.0670
118.3995,59.0670
118.3995,59.3030
118.3995,59.3030
118.4303,59.5370
118.4914,59.7650
118.5817,59.9830
118.5817,59.9831
118.6433,60.0896
118.6997,60.1874
118.6997,60.1875
118.6997,60.1875
118.8459,60.3779
118.8447,60.3788
118.8715,60.4367
118.8620,60.5059
118.8454,60.5317
118.8459,60.5321
118.6997,60.7225
118.5817,60.9269
118.5817,60.9270
118.4914,61.1450
118.4303,61.3730
118.3995,61.6070
118.3995,61.6070
118.3995,61.8430
118.3995,61.8430
118.4303,62.0770
118.4914,62.3050
118.5817,62.5230
118.5817,62.5231
118.6458,62.6340
118.6997,62.7274
118.6997,62.7275
118.6997,62.7275
118.8459,62.9179
118.8447,62.9188
118.8715,62.9767
118.8620,63.0459
118.8454,63.0717
118.8459,63.0721
118.6997,63.2625
118.5817,63.4669
118.5817,63.4670
118.4914,63.6850
118.4303,63.9130
118.3995,64.1470
118.3995,64.1470
118.3995,64.3830
118.3995,64.3830
118.4303,64.6170
118.4914,64.8450
118.5817,65.0630
118.5817,65.0631
118.6401,65.1642
118.6997,65.2674
118.6997,65.2675
118.6997,65.2675
118.8459,65.4579
118.8447,65.4588
118.8715,65.5167
118.8620,65.5859
118.8454,65.6117
118.8459,65.6121
118.6997,65.8025
118.5817,66.0069
118.5817,66.0070
118.4914,66.2250
118.4303,66.4530
118.3995,66.6870
118.3995,66.6870
118.3995,66.9230
118.3995,66.9230
118.4303,67.1570
118.4914,67.3850
118.5817,67.6030
118.5817,67.6031
118.6170,67.6642
118.6997,67.8075
118.6997,67.8075
118.6997,67.8075
118.8459,67.9979
118.8447,67.9988
118.8715,68.0567
118.8620,68.1259
118.8454,68.1517
118.8459,68.1521
118.6997,68.3425
118.5817,68.5469
118.5817,68.5470
118.4914,68.7650
118.4303,68.9930
118.3995,69.2270
118.3995,69.2270
118.3995,69.4630
118.3995,69.4630
118.4303,69.6970
118.4914,69.9250
118.5817,70.1430
118.5817,70.1431
118.6527,70.2660
118.6997,70.3474
118.6997,70.3475
118.6997,70.3475
118.8459,70.5379
118.8447,70.5388
118.8715,70.5967
118.8620,70.6659
118.8454,70.6917
118.8459,70.6921
118.6997,70.8825
118.5817,71.0869
118.5817,71.0870
118.4914,71.3050
118.4303,71.5330
118.3995,71.7670
118.3995,71.7670
118.3995,72.0030
118.3995,72.0030
118.4303,72.2370
118.4914,72.4650
118.5817,72.6830
118.5817,72.6831
118.6527,72.8060
118.6997,72.8875
118.6997,72.8875
118.6997,72.8875
118.8459,73.0779
118.8447,73.0788
118.8715,73.1367
118.8620,73.2059
118.8454,73.2317
118.8459,73.2321
118.6997,73.4225
118.5817,73.6269
118.5817,73.6270
118.4914,73.8450
118.4303,74.0730
118.3995,74.3070
118.3995,74.3070
118.3995,74.5430
118.3995,74.5430
118.4303,74.7770
118.4914,75.0050
118.5817,75.2230
118.5817,75.2231
118.6527,75.3460
118.6997,75.4274
118.6997,75.4275
118.6997,75.4275
118.8459,75.6179
118.8447,75.6188
118.8715,75.6767
118.8620,75.7459
118.8454,75.7717
118.8459,75.7721
118.6997,75.9625
118.5817,76.1669
118.5817,76.1670
118.4914,76.3850
118.4303,76.6130
118.3995,76.8470
118.3995,76.8470
118.3995,77.0830
118.3995,77.0830
118.4303,77.3170
118.4914,77.5450
118.5817,77.7630
118.5817,77.7631
118.6527,77.8860
118.6997,77.9674
118.6997,77.9675
118.6997,77.9675
118.8459,78.1579
118.8447,78.1588
118.8715,78.2167
118.8620,78.2859
118.8454,78.3117
118.8459,78.3121
118.6997,78.5025
118.5817,78.7069
118.5817,78.7070
118.4914,78.9250
118.4303,79.1530
118.3995,79.3870
118.3995,79.3870
118.3995,79.6230
118.3995,79.6230
118.4174,79.7586
118.4303,79.8570
118.4427,79.9032
118.4914,80.0850
118.5817,80.3030
118.5817,80.3031
118.6527,80.4260
118.6997,80.5074
118.6997,80.5075
118.6997,80.5075
118.8459,80.6979
118.8447,80.6988
118.8715,80.7567
118.8620,80.8259
118.8454,80.8517
118.8459,80.8521
118.6997,81.0425
118.5817,81.2469
118.5817,81.2470
118.4914,81.4650
118.4303,81.6930
118.3995,81.9270
118.3995,81.9270
118.3995,82.1630
118.3995,82.1630
118.4303,82.3970
118.4914,82.6250
118.5817,82.8430
118.5817,82.8431
118.6527,82.9660
118.6997,83.0474
118.6997,83.0475
118.6997,83.0475
118.8434,83.2347
118.8434,83.2347
119.0103,83.4016
119.0103,83.4016
119.1975,83.5453
119.2461,83.5733
119.2943,83.6238
119.3075,83.6924
119.2815,83.7573
119.2246,83.7978
119.2161,83.8004
119.1661,83.8138
119.1661,83.8138
118.9541,83.9016
118.9541,83.9017
118.7554,84.0164
118.5733,84.1561
118.4111,84.3183
118.2714,84.5004
118.1567,84.6991
118.1566,84.6991
118.0688,84.9111
118.0095,85.1328
118.0095,85.1328
117.9795,85.3603
117.9795,85.5897
118.0044,85.7792
118.0095,85.8172
118.0095,85.8172
118.0688,86.0389
118.1566,86.2509
118.1567,86.2509
118.2714,86.4496
118.4111,86.6317
118.4111,86.6317
118.5733,86.7939
118.5733,86.7939
118.7554,86.9336
118.7554,86.9336
118.7554,86.9336
118.9541,87.0483
118.9541,87.0483
118.9541,87.0483
119.0455,87.0862
119.1661,87.1362
119.3878,87.1955
119.6153,87.2255
119.6153,87.2255
119.8447,87.2255
119.8447,87.2255
120.0722,87.1955
120.2939,87.1362
120.5059,87.0483
120.7046,86.9336
120.8867,86.7939
120.8867,86.7939
120.8867,86.7939
121.0489,86.6317
121.0489,86.6317
121.0489,86.6317
121.1886,86.4496
121.3033,86.2509
121.3912,86.0389
121.4505,85.8172
121.4805,85.5897
121.4805,85.3603
121.4505,85.1328
121.3912,84.9111
121.3033,84.6991
121.1886,84.5004
121.1886,84.5004
121.1886,84.5004
121.0489,84.3183
121.0489,84.3183
120.8867,84.1561
120.8867,84.1561
120.7046,84.0164
120.7046,84.0164
120.7046,84.0164
120.6769,84.0004
120.6287,83.9498
120.6154,83.8812
120.6414,83.8163
120.6983,83.7758
120.7068,83.7732
120.7800,83.7536
120.9980,83.6633
121.2024,83.5453
121.3897,83.4016
121.5566,83.2347
121.7003,83.0474
121.8183,82.8430
121.9086,82.6250
121.9697,82.3970
122.0005,82.1630
122.0005,81.9270
121.9697,81.6930
121.9086,81.4650
121.8183,81.2470
121.8183,81.2469
121.8183,81.2469
121.7360,81.1044
121.7003,81.0425
121.6475,80.9738
121.5541,80.8521
121.5553,80.8512
121.5285,80.7934
121.5380,80.7242
121.5546,80.6983
121.5541,80.6979
121.6088,80.6266
121.7003,80.5074
121.8183,80.3030
121.9086,80.0850
121.9697,79.8570
122.0005,79.6230
122.0005,79.3870
121.9697,79.1530
121.9086,78.9250
121.8183,78.7070
121.8183,78.7069
121.8183,78.7069
121.7761,78.6339
121.7003,78.5025
121.6671,78.4593
121.5541,78.3121
121.5553,78.3112
121.5285,78.2534
121.5380,78.1842
121.5546,78.1583
121.5541,78.1579
121.6088,78.0866
121.7003,77.9674
121.8183,77.7630
121.9086,77.5450
121.9697,77.3170
122.0005,77.0830
122.0005,76.8470
121.9697,76.6130
121.9086,76.3850
121.8183,76.1670
121.8183,76.1669
121.8183,76.1669
121.7761,76.0939
121.7003,75.9625
121.6671,75.9193
121.5541,75.7721
121.5553,75.7712
121.5285,75.7134
121.5380,75.6442
121.5546,75.6183
121.5541,75.6179
121.6088,75.5466
121.7003,75.4274
121.8183,75.2230
121.9086,75.0050
121.9697,74.7770
122.0005,74.5430
122.0005,74.3070
121.9697,74.0730
121.9086,73.8450
121.8183,73.6270
121.8183,73.6269
121.8183,73.6269
121.7761,73.5539
121.7003,73.4226
121.6671,73.3793
121.5541,73.2321
121.5553,73.2312
121.5285,73.1734
121.5380,73.1042
121.5546,73.0783
121.5541,73.0779
121.6088,73.0066
121.7003,72.8875
121.8183,72.6830
121.9086,72.4650
121.9697,72.2370
122.0005,72.0030
122.0005,71.7670
121.9697,71.5330
121.9086,71.3050
121.8183,71.0870
121.8183,71.0869
121.8183,71.0869
121.7761,71.0139
121.7003,70.8825
121.6671,70.8393
121.5541,70.6921
121.5553,70.6912
121.5445,70.6678
121.5296,70.6396
121.5298,70.6364
121.5285,70.6334
121.5328,70.6018
121.5355,70.5700
121.5377,70.5665
121.5380,70.5642
121.5529,70.5393
121.5559,70.5354
121.5566,70.5347
121.5880,70.4938
121.6161,70.4733
121.6442,70.4528
121.6444,70.4528
121.6445,70.4527
121.6450,70.4527
121.6862,70.4455
123.3706,70.4455
123.4377,70.4652
123.4583,70.4818
135.9432,82.9667
135.9767,83.0280
135.9795,83.0544
135.9795,108.5539
135.9598,108.6209
135.9310,108.6523
135.7383,108.8001
135.5501,108.9883
135.3881,109.1995
135.3881,109.1995
135.3698,109.2312
135.3192,109.2794
135.2506,109.2927
135.1857,109.2667
135.1452,109.2098
135.1390,109.1814
135.1353,109.1441
135.1353,109.1441
135.0752,108.9460
134.9777,108.7635
134.8864,108.6523
134.8464,108.6036
134.6865,108.4723
134.6865,108.4723
134.6865,108.4723
134.5040,108.3748
134.3059,108.3147
134.3059,108.3147
134.3059,108.3147
134.1868,108.3030
134.1516,108.2995
134.1516,108.2995
132.5272,108.2995
132.4602,108.2798
132.4395,108.2632
119.0551,94.8787
125.6495,94.8787
125.6495,95.1213
125.6812,95.3618
125.7439,95.5961
125.7544,95.6213
125.8368,95.8202
125.9581,96.0303
125.9581,96.0303
125.9581,96.0303
126.1057,96.2227
126.1057,96.2227
126.2773,96.3943
126.2773,96.3943
126.4697,96.5419
126.6798,96.6632
126.9039,96.7561
127.1382,96.8188
127.3186,96.8426
127.3787,96.8505
127.3787,96.8505
127.6213,96.8505
127.6694,96.8442
127.8618,96.8188
128.0961,96.7561
128.3202,96.6632
128.5303,96.5419
128.7227,96.3943
128.8943,96.2227
129.0419,96.0303
129.1632,95.8202
129.2561,95.5961
129.3188,95.3618
129.3505,95.1213
129.3505,94.8787
129.3188,94.6382
129.2561,94.4039
129.1632,94.1798
129.0419,93.9697
128.8943,93.7773
128.8943,93.7773
128.7227,93.6057
128.7227,93.6057
128.5303,93.4581
128.5303,93.4581
128.5303,93.4581
128.3202,93.3368
128.3202,93.3368
128.0961,93.2439
127.8618,93.1812
127.6213,93.1495
127.6213,93.1495
127.3787,93.1495
127.3787,93.1495
127.1382,93.1812
126.9039,93.2439
126.6798,93.3368
126.6798,93.3368
126.4979,93.4418
126.4771,93.4538
126.4697,93.4581
126.2773,93.6057
126.2773,93.6057
126.1057,93.7773
126.1057,93.7773
125.9581,93.9697
125.8368,94.1798
125.8368,94.1798
125.7439,94.4039
125.6812,94.6382
125.6495,94.8787
119.0551,94.8787
117.7178,93.5415
117.6843,93.4802
117.6815,93.4538
117.6815,50.6112
117.7012,50.5442
117.7178,50.5235
119.9273,48.3141
119.9886,48.2806
120.0311,48.2788
120.0820,48.2855
120.0820,48.2855
120.3180,48.2855
120.3180,48.2855
120.5520,48.2547
120.7800,48.1936
120.9980,48.1033
121.2024,47.9853
121.3897,47.8416
121.5566,47.6747
121.7003,47.4874
121.8183,47.2830
121.9086,47.0650
121.9697,46.8370
121.9886,46.6933
122.0169,46.6294
122.0752,46.5909
122.1115,46.5855
141.9714,46.5855
142.0385,46.6052
142.0842,46.6580
142.0941,46.7271
142.0819,46.7658
142.0021,46.9224
142.0021,46.9224
141.9340,47.1320
141.8995,47.3498
141.8995,47.5702
141.9340,47.7880
142.0021,47.9976
142.0021,47.9976
142.0618,48.1148
142.1020,48.1936
142.1022,48.1940
142.2318,48.3724
142.2318,48.3724
142.3876,48.5282
142.3876,48.5282
142.5432,48.6413
142.5660,48.6578
142.5801,48.6650
142.6309,48.7130
142.6477,48.7808
142.6252,48.8469
142.5704,48.8904
142.5238,48.8995
136.2943,48.8995
136.2273,48.8798
136.2066,48.8632
136.1227,48.7792
136.1226,48.7792
135.9188,48.6311
135.9188,48.6311
135.9188,48.6311
135.8283,48.5850
135.6944,48.5168
135.4548,48.4389
135.3354,48.4200
135.2060,48.3995
134.9540,48.3995
134.8296,48.4192
134.7052,48.4389
134.4656,48.5168
134.2412,48.6311
134.0374,48.7792
134.0373,48.7792
133.8592,48.9573
133.8592,48.9573
133.7111,49.1612
133.5968,49.3856
133.5189,49.6252
133.4968,49.7645
133.4795,49.8740
133.4795,50.1260
133.5160,50.3566
133.5189,50.3748
133.5968,50.6144
133.7111,50.8388
133.8592,51.0426
133.8592,51.0427
134.0373,51.2208
134.0374,51.2208
134.1783,51.3232
134.2412,51.3689
134.3842,51.4417
134.4656,51.4832
134.4656,51.4832
134.4656,51.4832
134.7052,51.5611
134.9540,51.6005
134.9540,51.6005
135.2060,51.6005
135.2060,51.6005
135.4548,51.5611
135.6944,51.4832
135.9188,51.3689
136.1227,51.2208
136.2066,51.1368
136.2680,51.1033
136.2943,51.1005
144.9317,51.1005
144.9988,51.1202
145.0046,51.1242
145.0220,51.1368
145.1060,51.1978
145.2344,51.2632
145.3024,51.2979
145.3024,51.2979
145.3719,51.3205
145.5120,51.3660
145.7298,51.4005
145.7298,51.4005
145.9502,51.4005
145.9502,51.4005
146.1680,51.3660
146.3776,51.2979
146.5740,51.1978
146.7524,51.0682
146.9082,50.9124
147.0378,50.7340
147.1379,50.5376
147.2060,50.3280
147.2405,50.1102
147.2405,49.8898
147.2060,49.6720
147.1379,49.4624
147.1379,49.4624
147.0817,49.3520
147.0378,49.2660
146.9617,49.1612
146.9082,49.0876
146.9082,49.0876
146.7524,48.9318
146.7524,48.9318
146.5740,48.8022
146.5740,48.8022
146.5740,48.8022
146.5599,48.7950
146.5091,48.7470
146.4923,48.6792
146.5148,48.6131
146.5696,48.5696
146.6162,48.5605
152.6528,48.5605
152.6822,48.5691
152.7122,48.5757
152.7172,48.5794
152.7198,48.5802
152.7405,48.5968
152.8709,48.7273
152.9044,48.7886
152.9062,48.8311
152.8995,48.8820
152.8995,49.1180
152.8995,49.1180
152.9303,49.3520
152.9914,49.5800
153.0817,49.7980
153.0817,49.7981
153.1256,49.8740
153.1997,50.0024
153.1997,50.0025
153.1997,50.0025
153.3434,50.1897
153.3434,50.1897
153.5103,50.3566
153.5103,50.3566
153.5347,50.3753
153.6976,50.5003
153.8054,50.5625
153.9019,50.6183
153.9019,50.6183
153.9020,50.6183
154.1200,50.7086
154.3480,50.7697
154.5820,50.8005
154.5820,50.8005
154.8180,50.8005
154.8180,50.8005
155.0520,50.7697
155.2800,50.7086
155.4980,50.6183
155.7024,50.5003
155.8897,50.3566
156.0566,50.1897
156.2003,50.0024
156.3183,49.7980
156.4086,49.5800
156.4697,49.3520
156.5005,49.1180
156.5005,48.8820
156.4697,48.6480
156.4086,48.4200
156.3183,48.2020
156.3183,48.2019
156.3183,48.2019
156.2761,48.1289
156.2003,47.9975
156.0806,47.8416
156.0566,47.8103
156.0566,47.8103
155.8897,47.6434
155.8897,47.6434
155.7025,47.4997
155.7025,47.4997
155.7024,47.4997
155.6210,47.4527
155.4981,47.3817
155.4980,47.3817
155.2800,47.2914
155.0520,47.2303
154.8180,47.1995
154.8180,47.1995
154.8180,47.1995
154.5820,47.1995
154.5820,47.1995
154.5311,47.2062
154.4621,47.1954
154.4273,47.1709
154.0535,46.7972
154.0200,46.7359
154.0250,46.6662
154.0669,46.6102
154.1324,46.5858
154.1412,46.5855
158.2778,46.5855
158.3448,46.6052
158.3655,46.6218
160.4632,48.7195
160.4967,48.7808
160.4995,48.8072
160.4995,50.0450
160.5146,50.1792
160.5146,50.1793
160.5742,50.3495
160.6689,50.5003
160.6702,50.5023
160.7977,50.6298
160.9505,50.7258
161.1165,50.7839
161.1732,50.8246
161.1990,50.8895
161.1995,50.9009
161.1995,51.2328
161.1798,51.2998
161.1632,51.3205
152.4455,60.0382
152.3842,60.0717
152.3578,60.0745
151.4200,60.0745
151.2858,60.0896
151.2857,60.0896
151.1155,60.1492
150.9627,60.2452
150.8352,60.3727
150.7392,60.5255
150.6796,60.6957
150.6796,60.6957
150.6645,60.8300
150.6645,62.6200
150.6796,62.7542
150.6796,62.7543
150.7392,62.9245
150.8352,63.0773
150.9356,63.1777
150.9691,63.2390
150.9641,63.3087
150.9482,63.3382
150.9034,63.3999
150.7854,63.6314
150.7051,63.8785
150.6645,64.1351
150.6645,64.3478
150.6448,64.4148
150.6282,64.4355
149.6605,65.4032
149.5992,65.4367
149.5728,65.4395
144.4083,65.4395
144.3412,65.4198
144.3354,65.4158
144.2340,65.3422
144.2340,65.3422
144.2340,65.3422
144.1413,65.2950
144.0376,65.2421
144.0376,65.2421
143.8280,65.1740
143.7191,65.1567
143.6102,65.1395
143.3898,65.1395
143.3172,65.1510
143.1720,65.1740
142.9624,65.2421
142.9624,65.2421
142.7660,65.3422
142.5876,65.4718
142.5876,65.4718
142.4318,65.6276
142.4318,65.6276
142.3022,65.8060
142.2021,66.0024
142.2021,66.0024
142.1340,66.2120
142.0995,66.4298
142.0995,66.6502
142.1340,66.8680
142.2021,67.0776
142.2021,67.0776
142.3022,67.2740
142.4318,67.4524
142.4318,67.4524
142.5876,67.6082
142.5876,67.6082
142.6646,67.6642
142.7660,67.7378
142.8944,67.8032
142.9624,67.8379
142.9624,67.8379
143.0672,67.8720
143.1720,67.9060
143.3898,67.9405
143.3898,67.9405
143.6102,67.9405
143.6102,67.9405
143.8280,67.9060
144.0376,67.8379
144.2340,67.7378
144.3013,67.6889
144.3354,67.6642
144.4012,67.6407
144.4083,67.6405
150.1666,67.6405
150.1666,67.6405
150.3377,67.6134
150.5024,67.5599
150.6568,67.4812
150.7969,67.3794
152.2245,65.9518
152.2858,65.9183
152.3122,65.9155
152.4449,65.9155
152.5583,65.8975
152.7015,65.8749
152.9486,65.7946
153.1801,65.6766
153.3902,65.5239
153.5739,65.3402
153.7266,65.1301
153.8446,64.8986
153.9249,64.6515
153.9475,64.5083
153.9655,64.3949
153.9655,64.1351
153.9303,63.9130
153.9249,63.8785
153.8446,63.6314
153.8446,63.6314
153.8446,63.6314
153.7585,63.4624
153.7266,63.3999
153.6818,63.3382
153.6583,63.2724
153.6741,63.2044
153.6944,63.1777
153.6944,63.1777
153.7948,63.0773
153.8908,62.9245
153.9504,62.7543
153.9655,62.6200
153.9655,61.6822
153.9852,61.6152
154.0018,61.5945
158.4085,57.1878
163.1394,52.4569
163.2412,52.3168
163.3199,52.1624
163.3734,51.9977
163.4005,51.8266
163.4005,51.6534
163.4005,50.9009
163.4202,50.8339
163.4730,50.7881
163.4835,50.7839
163.6495,50.7258
163.8023,50.6298
163.9298,50.5023
164.0258,50.3495
164.0854,50.1793
164.1005,50.0450
164.1005,47.9550
164.0877,47.8416
164.0854,47.8207
164.0854,47.8207
164.0343,47.6747
164.0258,47.6505
164.0213,47.6434
163.9501,47.5300
163.9298,47.4977
163.8023,47.3702
163.6769,47.2914
163.6495,47.2742
163.4793,47.2146
163.4792,47.2146
163.3450,47.1995
163.3450,47.1995
162.1072,47.1995
162.0402,47.1798
162.0195,47.1632
159.5019,44.6456
159.5019,44.6456
159.5019,44.6456
159.3618,44.5438
159.2074,44.4651
159.0427,44.4116
159.0427,44.4116
159.0427,44.4116
158.8950,44.3882
158.8716,44.3845
121.1134,44.3845
121.1134,44.3845
121.0900,44.3882
120.9423,44.4116
120.9423,44.4116
120.9423,44.4116
120.8599,44.4384
120.7775,44.4651
120.6232,44.5438
120.6232,44.5438
120.5214,44.6177
120.5214,44.6177
120.4831,44.6456
120.4831,44.6456
120.4727,44.6559
120.4114,44.6894
120.3689,44.6912
120.3180,44.6845
120.3180,44.6845
120.0820,44.6845
120.0820,44.6845
120.0820,44.6845
119.8480,44.7153
119.6200,44.7764
119.4020,44.8667
119.4019,44.8667
119.1975,44.9847
119.0103,45.1284
119.0103,45.1284
118.8434,45.2953
118.8434,45.2953
118.6997,45.4825
118.5817,45.6869
118.5817,45.6870
118.4914,45.9050
118.4303,46.1330
118.3995,46.3670
118.3995,46.3670
118.3995,46.6030
118.4062,46.6539
118.3954,46.7229
118.3709,46.7577
115.8641,49.2646
115.7416,49.3871
115.7416,49.3871
115.7416,49.3871
115.6979,49.4473
115.6398,49.5272
115.5611,49.6816
115.5076,49.8463
115.4805,50.0174
115.4805,80.8610
115.4608,80.9280
115.4080,80.9738
115.3565,80.9850
98.5900,80.9850
98.5900,87.4750
115.3565,87.4750
115.4235,87.4947
115.4693,87.5475
115.4805,87.5990
115.4805,94.0476
115.5014,94.1798
115.5076,94.2187
115.5611,94.3834
115.6398,94.5378
115.7416,94.6779
115.7416,94.6779
130.2515,109.1878
130.2850,109.2491
130.2800,109.3188
130.2381,109.3748
130.1726,109.3992
130.1638,109.3995
101.7522,109.3995
101.6852,109.3798
101.6645,109.3632
87.6801,95.3787
98.1495,95.3787
98.1495,95.6213
98.1812,95.8618
98.2439,96.0961
98.2964,96.2227
98.3368,96.3202
98.4581,96.5303
98.4581,96.5303
98.4581,96.5303
98.6057,96.7227
98.6057,96.7227
98.7773,96.8943
98.7773,96.8943
98.9697,97.0419
99.1798,97.1632
99.4039,97.2561
99.6382,97.3188
99.8186,97.3426
99.8787,97.3505
99.8787,97.3505
100.1213,97.3505
100.1694,97.3442
100.3618,97.3188
100.5961,97.2561
100.8202,97.1632
101.0303,97.0419
101.2227,96.8943
101.3943,96.7227
101.5419,96.5303
101.6632,96.3202
101.7561,96.0961
101.8188,95.8618
101.8505,95.6213
101.8505,95.3787
101.8188,95.1382
101.7561,94.9039
101.6632,94.6798
101.5419,94.4697
101.3943,94.2773
101.3943,94.2773
101.2227,94.1057
101.2227,94.1057
101.0303,93.9581
101.0303,93.9581
101.0303,93.9581
100.8202,93.8368
100.8202,93.8368
100.5961,93.7439
100.3618,93.6812
100.1213,93.6495
100.1213,93.6495
99.8787,93.6495
99.8787,93.6495
99.6382,93.6812
99.4039,93.7439
99.1798,93.8368
99.1798,93.8368
98.9697,93.9581
98.7773,94.1057
98.7773,94.1057
98.6057,94.2773
98.6057,94.2773
98.4581,94.4697
98.3368,94.6798
98.3368,94.6798
98.2439,94.9039
98.1812,95.1382
98.1495,95.3787
87.6801,95.3787
73.4388,81.1375
73.4053,81.0762
73.4025,81.0498
73.4025,80.9720
73.3640,80.7291
73.2880,80.4952
73.2880,80.4952
73.2494,80.4193
73.1764,80.2761
73.1579,80.2506
73.0318,80.0771
73.0318,80.0771
72.8579,79.9032
72.8579,79.9032
72.6589,79.7586
72.6589,79.7586
72.6589,79.7586
72.5887,79.7229
72.4398,79.6470
72.4398,79.6470
72.2059,79.5710
72.0844,79.5517
71.9630,79.5325
71.7170,79.5325
71.6361,79.5453
71.4741,79.5710
71.2402,79.6470
71.2402,79.6470
71.0211,79.7586
70.8221,79.9032
70.8221,79.9032
70.6482,80.0771
70.6482,80.0771
70.5036,80.2761
70.3920,80.4952
70.3920,80.4952
70.3160,80.7291
70.3160,80.7291
70.2775,80.9720
67.5005,80.9720
67.5005,47.9550
74.3195,47.9550
74.3195,51.0450
74.3346,51.1792
74.3346,51.1793
74.3942,51.3495
74.4555,51.4470
74.4902,51.5023
74.6177,51.6298
74.7705,51.7258
74.9407,51.7854
74.9407,51.7854
75.0312,51.7956
75.0750,51.8005
75.0750,51.8005
75.0750,51.8005
75.1955,51.8005
75.2625,51.8202
75.3083,51.8730
75.3195,51.9245
75.3195,80.8974
75.3515,81.0995
75.3527,81.1043
75.3522,81.1044
75.3575,81.1376
75.3575,81.2180
75.3677,81.2823
75.3960,81.4609
75.4720,81.6948
75.4720,81.6948
75.5836,81.9139
75.7282,82.1129
75.7282,82.1129
75.9021,82.2868
75.9021,82.2868
76.0538,82.3970
76.1011,82.4314
76.2443,82.5044
76.3202,82.5430
76.3202,82.5430
76.4372,82.5810
76.5541,82.6190
76.7970,82.6575
76.7970,82.6575
77.0430,82.6575
77.0430,82.6575
77.2859,82.6190
77.5198,82.5430
77.7389,82.4314
77.9379,82.2868
78.1118,82.1129
78.2564,81.9139
78.3680,81.6948
78.4440,81.4609
78.4825,81.2180
78.4825,80.9720
78.4440,80.7291
78.3680,80.4952
78.3680,80.4952
78.3294,80.4193
78.2564,80.2761
78.2429,80.2575
78.1118,80.0771
78.1118,80.0771
78.1118,80.0771
77.9568,79.9221
77.9233,79.8608
77.9205,79.8344
77.9205,62.2050
82.1070,62.2050
82.1070,65.2950
82.1221,65.4292
82.1221,65.4293
82.1817,65.5995
82.2328,65.6808
82.2777,65.7523
82.4052,65.8798
82.5580,65.9758
82.7282,66.0354
82.7283,66.0354
82.8187,66.0456
82.8625,66.0505
82.8625,66.0505
82.8625,66.0505
82.9830,66.0505
83.0500,66.0702
83.0958,66.1230
83.1070,66.1745
83.1070,80.4359
83.0935,80.4922
83.0920,80.4952
83.0160,80.7291
83.0160,80.7291
82.9775,80.9720
82.9775,81.2180
82.9877,81.2823
83.0160,81.4609
83.0920,81.6948
83.0920,81.6948
83.2036,81.9139
83.2036,81.9139
83.2057,81.9167
83.2158,81.9333
83.2347,81.9704
83.2479,81.9962
83.2952,82.0891
83.3624,82.1816
83.4155,82.2547
83.5080,82.3472
83.6528,82.4920
83.8184,82.6123
83.8606,82.6338
84.0008,82.7052
84.0008,82.7052
84.1477,82.7530
84.1477,82.7530
84.1707,82.7604
84.1955,82.7685
84.3976,82.8005
84.3976,82.8005
84.6024,82.8005
84.6024,82.8005
84.8045,82.7685
84.9992,82.7052
85.1816,82.6123
85.3472,82.4920
85.4920,82.3472
85.5308,82.3084
85.5456,82.2958
85.5579,82.2868
85.7318,82.1129
85.8764,81.9139
85.9880,81.6948
86.0640,81.4609
86.1025,81.2180
86.1025,80.9720
86.0640,80.7291
85.9880,80.4952
85.9880,80.4952
85.9494,80.4193
85.8764,80.2761
85.8683,80.2650
85.7317,80.0769
85.7082,80.0111
85.7080,80.0040
85.7080,66.1745
85.7277,66.1075
85.7805,66.0617
85.8320,66.0505
85.9525,66.0505
85.9525,66.0505
86.0196,66.0429
86.0867,66.0354
86.0868,66.0354
86.0868,66.0354
86.2570,65.9758
86.4098,65.8798
86.5373,65.7523
86.6333,65.5995
86.6929,65.4293
86.7080,65.2950
86.7080,62.2050
86.7031,62.1612
86.6929,62.0707
86.6929,62.0707
86.6333,61.9005
86.5373,61.7477
86.4098,61.6202
86.2570,61.5242
86.0868,61.4646
86.0867,61.4646
85.9525,61.4495
85.9525,61.4495
82.8625,61.4495
82.8625,61.4495
82.7283,61.4646
82.7282,61.4646
82.5580,61.5242
82.4052,61.6202
82.2777,61.7477
82.1817,61.9005
82.1221,62.0707
82.1221,62.0707
82.1070,62.2050
77.9205,62.2050
77.9205,51.9245
77.9402,51.8575
77.9930,51.8117
78.0445,51.8005
78.1650,51.8005
78.1650,51.8005
78.2321,51.7929
78.2992,51.7854
78.2993,51.7854
78.2993,51.7854
78.4695,51.7258
78.6223,51.6298
78.7498,51.5023
78.8458,51.3495
78.9054,51.1793
78.9102,51.1368
78.9139,51.1033
78.9205,51.0450
78.9205,47.9550
78.9077,47.8416
78.9054,47.8207
78.9054,47.8207
78.8543,47.6747
78.8458,47.6505
78.8413,47.6434
78.7701,47.5300
78.7498,47.4977
78.6223,47.3702
78.4969,47.2914
78.4695,47.2742
78.2993,47.2146
78.2992,47.2146
78.1650,47.1995
78.1650,47.1995
75.0750,47.1995
75.0750,47.1995
74.9407,47.2146
74.9407,47.2146
74.7705,47.2742
74.6177,47.3702
74.4902,47.4977
74.3942,47.6505
74.3346,47.8207
74.3346,47.8207
74.3195,47.9550
67.5005,47.9550
67.5005,28.8742
82.4320,28.8742
82.4320,29.1758
82.4320,29.1758
82.4714,29.4748
82.5494,29.7661
82.6648,30.0447
82.6648,30.0447
82.8156,30.3058
82.9992,30.5451
82.9992,30.5451
83.2124,30.7583
83.2124,30.7583
83.4517,30.9419
83.7128,31.0927
83.7128,31.0927
83.7128,31.0927
83.8986,31.1696
83.9914,31.2081
83.9914,31.2081
83.9914,31.2081
84.2827,31.2861
84.5817,31.3255
84.5817,31.3255
84.8833,31.3255
84.8833,31.3255
85.1823,31.2861
85.3143,31.2508
85.3841,31.2524
85.4340,31.2829
87.0932,32.9420
87.1267,33.0033
87.1295,33.0297
87.1295,57.7816
87.1506,57.9150
87.1566,57.9527
87.2101,58.1174
87.2888,58.2718
87.3906,58.4119
87.3906,58.4119
92.9709,63.9923
93.0044,64.0536
93.0062,64.0961
92.9995,64.1470
92.9995,64.3830
92.9995,64.3830
93.0303,64.6170
93.0914,64.8450
93.1817,65.0630
93.1817,65.0631
93.2401,65.1642
93.2997,65.2674
93.2997,65.2675
93.2997,65.2675
93.4459,65.4579
93.4447,65.4588
93.4715,65.5167
93.4620,65.5859
93.4454,65.6117
93.4459,65.6121
93.2997,65.8025
93.1817,66.0069
93.1817,66.0070
93.0914,66.2250
93.0303,66.4530
92.9995,66.6870
92.9995,66.6870
92.9995,66.9230
92.9995,66.9230
93.0303,67.1570
93.0914,67.3850
93.1817,67.6030
93.1817,67.6031
93.2170,67.6642
93.2997,67.8075
93.2997,67.8075
93.2997,67.8075
93.4459,67.9979
93.4447,67.9988
93.4715,68.0567
93.4620,68.1259
93.4454,68.1517
93.4459,68.1521
93.2997,68.3425
93.1817,68.5469
93.1817,68.5470
93.0914,68.7650
93.0303,68.9930
92.9995,69.2270
92.9995,69.2270
92.9995,69.4630
92.9995,69.4630
93.0303,69.6970
93.0914,69.9250
93.1817,70.1430
93.1817,70.1431
93.2527,70.2660
93.2997,70.3474
93.2997,70.3475
93.2997,70.3475
93.4459,70.5379
93.4447,70.5388
93.4715,70.5967
93.4620,70.6659
93.4454,70.6917
93.4459,70.6921
93.2997,70.8825
93.1817,71.0869
93.1817,71.0870
93.0914,71.3050
93.0303,71.5330
92.9995,71.7670
92.9995,71.7670
92.9995,72.0030
92.9995,72.0030
93.0303,72.2370
93.0914,72.4650
93.1817,72.6830
93.1817,72.6831
93.2527,72.8060
93.2997,72.8875
93.2997,72.8875
93.2997,72.8875
93.4459,73.0779
93.4447,73.0788
93.4715,73.1367
93.4620,73.2059
93.4454,73.2317
93.4459,73.2321
93.2997,73.4225
93.1817,73.6269
93.1817,73.6270
93.0914,73.8450
93.0303,74.0730
92.9995,74.3070
92.9995,74.3070
92.9995,74.5430
92.9995,74.5430
93.0303,74.7770
93.0914,75.0050
93.1817,75.2230
93.1817,75.2231
93.2527,75.3460
93.2997,75.4274
93.2997,75.4275
93.2997,75.4275
93.4459,75.6179
93.4447,75.6188
93.4715,75.6767
93.4620,75.7459
93.4454,75.7717
93.4459,75.7721
93.2997,75.9625
93.1817,76.1669
93.1817,76.1670
93.0914,76.3850
93.0303,76.6130
92.9995,76.8470
92.9995,76.8470
92.9995,77.0830
92.9995,77.0830
93.0303,77.3170
93.0914,77.5450
93.1817,77.7630
93.1817,77.7631
93.2527,77.8860
93.2997,77.9674
93.2997,77.9675
93.2997,77.9675
93.4459,78.1579
93.4447,78.1588
93.4715,78.2167
93.4620,78.2859
93.4454,78.3117
93.4459,78.3121
93.2997,78.5025
93.1817,78.7069
93.1817,78.7070
93.0914,78.9250
93.0303,79.1530
92.9995,79.3870
92.9995,79.3870
92.9995,79.6230
92.9995,79.6230
93.0174,79.7586
93.0303,79.8570
93.0427,79.9032
93.0914,80.0850
93.1817,80.3030
93.1817,80.3031
93.2527,80.4260
93.2997,80.5074
93.2997,80.5075
93.2997,80.5075
93.4459,80.6979
93.4447,80.6988
93.4715,80.7567
93.4620,80.8259
93.4454,80.8517
93.4459,80.8521
93.2997,81.0425
93.1817,81.2469
93.1817,81.2470
93.0914,81.4650
93.0303,81.6930
92.9995,81.9270
92.9995,81.9270
92.9995,82.1630
92.9995,82.1630
93.0303,82.3970
93.0914,82.6250
93.1817,82.8430
93.1817,82.8431
93.2527,82.9660
93.2997,83.0474
93.2997,83.0475
93.2997,83.0475
93.4434,83.2347
93.4434,83.2347
93.6103,83.4016
93.6103,83.4016
93.7976,83.5453
93.9289,83.6211
94.0019,83.6633
94.0019,83.6633
94.0020,83.6633
94.2200,83.7536
94.2591,83.7641
94.3187,83.8004
94.3492,83.8633
94.3410,83.9327
94.2965,83.9865
94.2890,83.9912
94.2731,84.0004
94.2454,84.0164
94.0633,84.1561
93.9011,84.3183
93.7614,84.5004
93.6467,84.6991
93.6466,84.6991
93.5588,84.9111
93.4995,85.1328
93.4995,85.1328
93.4695,85.3603
93.4695,85.5897
93.4944,85.7792
93.4995,85.8172
93.4995,85.8172
93.5588,86.0389
93.6466,86.2509
93.6467,86.2509
93.7614,86.4496
93.9011,86.6317
93.9011,86.6317
94.0633,86.7939
94.0633,86.7939
94.2454,86.9336
94.2454,86.9336
94.2454,86.9336
94.4441,87.0483
94.4441,87.0483
94.4441,87.0483
94.5355,87.0862
94.6561,87.1362
94.8778,87.1955
95.1053,87.2255
95.1053,87.2255
95.3347,87.2255
95.3347,87.2255
95.5622,87.1955
95.7839,87.1362
95.9959,87.0483
96.1946,86.9336
96.3767,86.7939
96.3767,86.7939
96.3767,86.7939
96.5389,86.6317
96.5389,86.6317
96.5389,86.6317
96.6786,86.4496
96.7933,86.2509
96.8812,86.0389
96.9405,85.8172
96.9705,85.5897
96.9705,85.3603
96.9405,85.1328
96.8812,84.9111
96.7933,84.6991
96.6786,84.5004
96.6786,84.5004
96.6786,84.5004
96.5389,84.3183
96.5389,84.3183
96.3767,84.1561
96.3767,84.1561
96.1946,84.0164
95.9959,83.9017
95.9959,83.9016
95.7839,83.8138
95.7839,83.8138
95.7839,83.8138
95.7680,83.8096
95.7083,83.7732
95.6778,83.7104
95.6861,83.6410
95.7306,83.5871
95.7381,83.5824
95.8024,83.5453
95.9897,83.4016
96.1566,83.2347
96.3003,83.0474
96.4183,82.8430
96.5086,82.6250
96.5697,82.3970
96.6005,82.1630
96.6005,81.9270
96.5697,81.6930
96.5086,81.4650
96.4183,81.2470
96.4183,81.2469
96.4183,81.2469
96.3360,81.1044
96.3003,81.0425
96.2475,80.9738
96.1541,80.8521
96.1553,80.8512
96.1285,80.7934
96.1380,80.7242
96.1546,80.6983
96.1541,80.6979
96.2088,80.6266
96.3003,80.5074
96.4183,80.3030
96.5086,80.0850
96.5697,79.8570
96.6005,79.6230
96.6005,79.3870
96.5697,79.1530
96.5086,78.9250
96.4183,78.7070
96.4183,78.7069
96.4183,78.7069
96.3761,78.6339
96.3003,78.5025
96.2671,78.4593
96.1541,78.3121
96.1553,78.3112
96.1285,78.2534
96.1380,78.1842
96.1546,78.1583
96.1541,78.1579
96.2088,78.0866
96.3003,77.9674
96.4183,77.7630
96.5086,77.5450
96.5697,77.3170
96.6005,77.0830
96.6005,76.8470
96.5697,76.6130
96.5086,76.3850
96.4183,76.1670
96.4183,76.1669
96.4183,76.1669
96.3761,76.0939
96.3003,75.9625
96.2671,75.9193
96.1541,75.7721
96.1553,75.7712
96.1285,75.7134
96.1380,75.6442
96.1546,75.6183
96.1541,75.6179
96.2088,75.5466
96.3003,75.4274
96.4183,75.2230
96.5086,75.0050
96.5697,74.7770
96.6005,74.5430
96.6005,74.3070
96.5697,74.0730
96.5086,73.8450
96.4183,73.6270
96.4183,73.6269
96.4183,73.6269
96.3761,73.5539
96.3003,73.4226
96.2671,73.3793
96.1541,73.2321
96.1553,73.2312
96.1285,73.1734
96.1380,73.1042
96.1546,73.0783
96.1541,73.0779
96.2088,73.0066
96.3003,72.8875
96.4183,72.6830
96.5086,72.4650
96.5697,72.2370
96.6005,72.0030
96.6005,71.7670
96.5697,71.5330
96.5086,71.3050
96.4183,71.0870
96.4183,71.0869
96.4183,71.0869
96.3761,71.0139
96.3003,70.8825
96.2671,70.8393
96.1541,70.6921
96.1553,70.6912
96.1285,70.6334
96.1380,70.5642
96.1546,70.5383
96.1541,70.5379
96.2250,70.4455
96.3003,70.3474
96.4183,70.1430
96.5086,69.9250
96.5697,69.6970
96.6005,69.4630
96.6005,69.2270
96.5697,68.9930
96.5086,68.7650
96.4183,68.5470
96.4183,68.5469
96.4183,68.5469
96.3356,68.4038
96.3003,68.3426
96.2099,68.2248
96.1541,68.1521
96.1553,68.1512
96.1285,68.0934
96.1380,68.0242
96.1546,67.9983
96.1541,67.9979
96.2194,67.9128
96.3003,67.8075
96.4183,67.6030
96.5086,67.3850
96.5697,67.1570
96.6005,66.9230
96.6005,66.6870
96.5697,66.4530
96.5086,66.2250
96.4183,66.0070
96.4183,66.0069
96.4183,66.0069
96.3655,65.9155
96.3003,65.8025
96.2099,65.6848
96.1541,65.6121
96.1553,65.6112
96.1285,65.5534
96.1380,65.4842
96.1546,65.4583
96.1541,65.4579
96.2088,65.3866
96.3003,65.2674
96.4183,65.0630
96.5086,64.8450
96.5697,64.6170
96.6005,64.3830
96.6005,64.1470
96.5697,63.9130
96.5086,63.6850
96.4183,63.4670
96.4183,63.4669
96.4183,63.4669
96.3440,63.3382
96.3003,63.2625
96.1661,63.0876
96.1541,63.0721
96.1553,63.0712
96.1285,63.0134
96.1380,62.9442
96.1546,62.9183
96.1541,62.9179
96.2429,62.8022
96.3003,62.7274
96.4183,62.5230
96.5086,62.3050
96.5697,62.0770
96.6005,61.8430
96.6005,61.6070
96.5697,61.3730
96.5086,61.1450
96.4183,60.9270
96.4183,60.9269
96.4183,60.9269
96.3623,60.8300
96.3003,60.7225
96.2671,60.6793
96.1541,60.5321
96.1553,60.5312
96.1285,60.4734
96.1380,60.4042
96.1546,60.3783
96.1541,60.3779
96.2560,60.2452
96.3003,60.1874
96.4183,59.9830
96.5086,59.7650
96.5697,59.5370
96.6005,59.3030
96.6005,59.0670
96.5697,58.8330
96.5086,58.6050
96.4183,58.3870
96.4183,58.3869
96.4183,58.3869
96.3761,58.3139
96.3003,58.1825
96.2503,58.1174
96.1541,57.9921
96.1553,57.9912
96.1285,57.9334
96.1380,57.8642
96.1546,57.8383
96.1541,57.8379
96.2088,57.7666
96.3003,57.6474
96.4183,57.4430
96.5086,57.2250
96.5697,56.9970
96.6005,56.7630
96.6005,56.5270
96.5697,56.2930
96.5086,56.0650
96.4183,55.8470
96.4183,55.8469
96.4183,55.8469
96.3761,55.7739
96.3003,55.6425
96.2671,55.5993
96.1541,55.4521
96.1553,55.4512
96.1285,55.3934
96.1380,55.3242
96.1546,55.2983
96.1541,55.2979
96.2088,55.2266
96.3003,55.1075
96.4183,54.9030
96.5086,54.6850
96.5697,54.4570
96.6005,54.2230
96.6005,53.9870
96.5697,53.7530
96.5086,53.5250
96.4183,53.3070
96.4183,53.3069
96.4183,53.3069
96.3761,53.2339
96.3003,53.1026
96.2671,53.0593
96.1541,52.9121
96.1553,52.9112
96.1285,52.8534
96.1380,52.7842
96.1546,52.7583
96.1541,52.7579
96.2088,52.6866
96.3003,52.5675
96.4183,52.3630
96.5086,52.1450
96.5697,51.9170
96.6005,51.6830
96.6005,51.4470
96.5697,51.2130
96.5086,50.9850
96.4183,50.7670
96.4183,50.7669
96.4183,50.7669
96.3391,50.6298
96.3003,50.5625
96.1566,50.3753
96.1566,50.3753
95.9897,50.2084
95.9897,50.2084
95.8025,50.0647
95.8025,50.0647
95.8024,50.0647
95.6946,50.0024
95.5981,49.9467
95.5980,49.9467
95.3800,49.8564
95.1520,49.7953
94.9180,49.7645
94.9180,49.7645
94.9180,49.7645
94.6820,49.7645
94.6820,49.7645
94.6820,49.7645
94.4480,49.7953
94.2200,49.8564
94.0020,49.9467
94.0019,49.9467
93.7975,50.0647
93.6103,50.2084
93.6103,50.2084
93.4434,50.3753
93.4434,50.3753
93.2997,50.5625
93.1817,50.7669
93.1817,50.7670
93.0914,50.9850
93.0303,51.2130
93.0056,51.4005
92.9995,51.4470
92.9995,51.4470
92.9995,51.6830
92.9995,51.6830
93.0303,51.9170
93.0914,52.1450
93.1817,52.3630
93.1817,52.3631
93.2359,52.4569
93.2997,52.5675
93.2997,52.5675
93.2997,52.5675
93.4459,52.7579
93.4447,52.7588
93.4715,52.8167
93.4620,52.8859
93.4454,52.9117
93.4459,52.9121
93.2997,53.1025
93.1817,53.3069
93.1817,53.3070
93.0914,53.5250
93.0303,53.7530
92.9995,53.9870
92.9995,53.9870
92.9995,54.2230
92.9995,54.2230
93.0303,54.4570
93.0914,54.6850
93.1817,54.9030
93.1817,54.9031
93.2527,55.0260
93.2997,55.1075
93.2997,55.1075
93.2997,55.1075
93.4459,55.2979
93.4447,55.2988
93.4715,55.3567
93.4620,55.4259
93.4454,55.4517
93.4459,55.4521
93.2997,55.6425
93.1817,55.8469
93.1817,55.8470
93.0914,56.0650
93.0303,56.2930
92.9995,56.5270
92.9995,56.5270
92.9995,56.7630
92.9995,56.7630
93.0303,56.9970
93.0914,57.2250
93.1817,57.4430
93.1817,57.4431
93.2527,57.5660
93.2997,57.6474
93.2997,57.6475
93.2997,57.6475
93.4459,57.8379
93.4447,57.8388
93.4715,57.8967
93.4620,57.9659
93.4454,57.9917
93.4459,57.9921
93.2997,58.1825
93.1817,58.3869
93.1817,58.3870
93.0914,58.6050
93.0303,58.8330
92.9995,59.0670
92.9995,59.0670
92.9995,59.3030
92.9995,59.3030
93.0303,59.5370
93.0914,59.7650
93.1817,59.9830
93.1817,59.9831
93.2433,60.0896
93.2997,60.1874
93.2997,60.1875
93.2997,60.1875
93.4459,60.3779
93.4447,60.3788
93.4715,60.4367
93.4620,60.5059
93.4454,60.5317
93.4459,60.5321
93.2997,60.7225
93.2027,60.8906
93.1521,60.9388
93.0835,60.9520
93.0187,60.9261
93.0076,60.9163
89.3668,57.2755
89.3333,57.2142
89.3305,57.1878
89.3305,45.4400
92.9995,45.4400
92.9995,47.5300
93.0146,47.6642
93.0146,47.6643
93.0742,47.8345
93.1499,47.9550
93.1702,47.9873
93.2977,48.1148
93.3881,48.1716
93.4364,48.2019
93.4505,48.2108
93.6207,48.2704
93.6208,48.2704
93.7112,48.2806
93.7550,48.2855
93.7550,48.2855
93.7550,48.2855
95.8450,48.2855
95.8450,48.2855
95.9121,48.2779
95.9792,48.2704
95.9793,48.2704
95.9793,48.2704
96.1495,48.2108
96.3023,48.1148
96.4298,47.9873
96.5258,47.8345
96.5854,47.6643
96.5869,47.6505
96.6005,47.5300
96.6005,47.5300
96.6005,45.4400
96.6005,45.4400
96.5854,45.3057
96.5854,45.3057
96.5258,45.1355
96.4866,45.0731
96.4298,44.9827
96.3023,44.8552
96.1769,44.7764
96.1495,44.7592
95.9793,44.6996
95.9792,44.6996
95.8450,44.6845
95.8450,44.6845
93.7550,44.6845
93.7550,44.6845
93.6208,44.6996
93.6207,44.6996
93.4505,44.7592
93.2977,44.8552
93.1702,44.9827
93.0742,45.1355
93.0146,45.3057
93.0146,45.3057
92.9995,45.4400
89.3305,45.4400
89.3305,38.4103
93.4695,38.4103
93.4695,38.6397
93.4944,38.8292
93.4995,38.8672
93.4995,38.8672
93.5588,39.0889
93.6466,39.3009
93.6467,39.3009
93.7614,39.4996
93.9011,39.6817
93.9011,39.6817
94.0633,39.8439
94.0633,39.8439
94.2454,39.9836
94.2454,39.9836
94.2454,39.9836
94.4441,40.0983
94.4441,40.0983
94.4441,40.0983
94.5355,40.1362
94.6561,40.1862
94.8778,40.2455
95.1053,40.2755
95.1053,40.2755
95.3347,40.2755
95.3347,40.2755
95.5622,40.2455
95.7839,40.1862
95.9959,40.0983
96.1946,39.9836
96.3767,39.8439
96.3767,39.8439
96.3767,39.8439
96.5389,39.6817
96.5389,39.6817
96.5389,39.6817
96.6786,39.4996
96.7933,39.3009
96.8812,39.0889
96.9405,38.8672
96.9705,38.6397
96.9705,38.4103
96.9705,38.4103
117.9795,38.4103
117.9795,38.6397
118.0044,38.8292
118.0095,38.8672
118.0095,38.8672
118.0688,39.0889
118.1566,39.3009
118.1567,39.3009
118.2714,39.4996
118.4111,39.6817
118.4111,39.6817
118.5733,39.8439
118.5733,39.8439
118.7554,39.9836
118.7554,39.9836
118.7554,39.9836
118.9541,40.0983
118.9541,40.0983
118.9541,40.0983
119.0455,40.1362
119.1661,40.1862
119.3878,40.2455
119.6153,40.2755
119.6153,40.2755
119.8447,40.2755
119.8447,40.2755
120.0722,40.2455
120.2939,40.1862
120.5059,40.0983
120.7046,39.9836
120.8867,39.8439
120.8867,39.8439
120.8867,39.8439
121.0489,39.6817
121.0489,39.6817
121.0489,39.6817
121.1886,39.4996
121.3033,39.3009
121.3912,39.0889
121.4505,38.8672
121.4805,38.6397
121.4805,38.4103
121.4505,38.1828
121.3912,37.9611
121.3033,37.7491
121.1886,37.5504
121.1886,37.5504
121.1886,37.5504
121.0489,37.3683
121.0489,37.3683
120.8867,37.2061
120.8867,37.2061
120.7046,37.0664
120.5059,36.9517
120.5059,36.9517
120.2939,36.8638
120.0722,36.8045
120.0342,36.7994
119.8447,36.7745
119.8447,36.7745
119.6153,36.7745
119.6153,36.7745
119.3987,36.8030
119.3878,36.8045
119.2941,36.8296
119.1661,36.8638
118.9541,36.9517
118.9541,36.9517
118.7554,37.0664
118.5733,37.2061
118.4111,37.3683
118.2714,37.5504
118.1567,37.7491
118.1566,37.7491
118.0688,37.9611
118.0095,38.1828
118.0095,38.1828
117.9795,38.4103
96.9705,38.4103
96.9405,38.1828
96.8812,37.9611
96.7933,37.7491
96.6786,37.5504
96.6786,37.5504
96.6786,37.5504
96.5389,37.3683
96.5389,37.3683
96.3767,37.2061
96.3767,37.2061
96.1946,37.0664
95.9959,36.9517
95.9959,36.9517
95.7839,36.8638
95.5622,36.8045
95.5242,36.7994
95.3347,36.7745
95.3347,36.7745
95.1053,36.7745
95.1053,36.7745
94.8887,36.8030
94.8778,36.8045
94.7841,36.8296
94.6561,36.8638
94.4441,36.9517
94.4441,36.9517
94.2454,37.0664
94.0633,37.2061
93.9011,37.3683
93.7614,37.5504
93.6467,37.7491
93.6466,37.7491
93.5588,37.9611
93.4995,38.1828
93.4995,38.1828
93.4695,38.4103
89.3305,38.4103
89.3305,32.4359
89.3034,32.2648
89.3034,32.2648
89.2499,32.1001
89.1712,31.9457
89.0694,31.8056
88.9469,31.6831
86.9904,29.7265
86.9569,29.6652
86.9583,29.6068
86.9936,29.4748
87.0330,29.1758
87.0330,28.8742
86.9936,28.5752
86.9156,28.2839
86.9040,28.2561
86.8656,28.1632
86.8002,28.0053
86.7361,27.8943
86.6494,27.7442
86.4658,27.5049
86.4658,27.5049
86.2526,27.2917
86.2526,27.2917
86.0133,27.1081
85.7522,26.9573
85.7522,26.9573
85.4736,26.8419
85.1823,26.7639
84.8833,26.7245
84.8833,26.7245
84.8833,26.7245
84.5817,26.7245
84.5817,26.7245
84.5817,26.7245
84.2827,26.7639
83.9914,26.8419
83.7128,26.9573
83.7128,26.9573
83.4517,27.1081
83.2124,27.2917
83.2124,27.2917
82.9992,27.5049
82.9992,27.5049
82.8156,27.7442
82.6648,28.0053
82.6648,28.0053
82.5494,28.2839
82.4714,28.5752
82.4320,28.8742
82.4320,28.8742
67.5005,28.8742
67.5005,26.3787
70.6495,26.3787
70.6495,26.6213
70.6812,26.8618
70.7439,27.0961
70.7964,27.2227
70.8368,27.3202
70.9581,27.5303
70.9581,27.5303
70.9581,27.5303
71.1057,27.7227
71.1057,27.7227
71.2773,27.8943
71.2773,27.8943
71.4697,28.0419
71.6798,28.1632
71.9039,28.2561
72.1382,28.3188
72.3186,28.3426
72.3787,28.3505
72.3787,28.3505
72.6213,28.3505
72.6694,28.3442
72.8618,28.3188
73.0961,28.2561
73.3202,28.1632
73.5303,28.0419
73.7227,27.8943
73.8943,27.7227
74.0419,27.5303
74.1632,27.3202
74.2561,27.0961
74.3188,26.8618
74.3505,26.6213
74.3505,26.3787
74.3188,26.1382
74.2561,25.9039
74.2456,25.8787
158.1495,25.8787
158.1495,26.1213
158.1812,26.3618
158.2439,26.5961
158.3134,26.7639
158.3368,26.8202
158.4581,27.0303
158.4581,27.0303
158.4581,27.0303
158.6057,27.2227
158.6057,27.2227
158.7773,27.3943
158.7773,27.3943
158.9697,27.5419
159.1798,27.6632
159.4039,27.7561
159.6382,27.8188
159.8186,27.8426
159.8787,27.8505
159.8787,27.8505
160.1213,27.8505
160.1694,27.8442
160.3618,27.8188
160.5961,27.7561
160.8202,27.6632
161.0303,27.5419
161.2227,27.3943
161.3943,27.2227
161.5419,27.0303
161.6632,26.8202
161.7561,26.5961
161.8188,26.3618
161.8505,26.1213
161.8505,25.8787
161.8188,25.6382
161.7561,25.4039
161.6632,25.1798
161.5419,24.9697
161.3943,24.7773
161.3943,24.7773
161.2227,24.6057
161.2227,24.6057
161.0303,24.4581
161.0303,24.4581
161.0303,24.4581
160.8202,24.3368
160.8202,24.3368
160.5961,24.2439
160.3618,24.1812
160.1213,24.1495
160.1213,24.1495
159.8787,24.1495
159.8787,24.1495
159.6382,24.1812
159.4039,24.2439
159.1798,24.3368
159.1798,24.3368
158.9697,24.4581
158.7773,24.6057
158.7773,24.6057
158.6057,24.7773
158.6057,24.7773
158.4581,24.9697
158.3368,25.1798
158.3368,25.1798
158.2439,25.4039
158.1812,25.6382
158.1495,25.8787
74.2456,25.8787
74.1632,25.6798
74.1632,25.6798
74.0419,25.4697
73.8943,25.2773
73.8943,25.2773
73.7227,25.1057
73.7227,25.1057
73.5303,24.9581
73.5303,24.9581
73.5303,24.9581
73.3202,24.8368
73.3202,24.8368
73.0961,24.7439
72.8618,24.6812
72.6213,24.6495
72.6213,24.6495
72.3787,24.6495
72.3787,24.6495
72.1382,24.6812
71.9039,24.7439
71.6798,24.8368
71.6798,24.8368
71.4697,24.9581
71.2773,25.1057
71.2773,25.1057
71.1057,25.2773
71.1057,25.2773
70.9581,25.4697
70.8368,25.6798
70.8368,25.6798
70.7439,25.9039
70.6812,26.1382
70.6495,26.3787
67.5005,26.3787
67.5005,21.1245
67.5202,21.0575
67.5730,21.0117
67.6245,21.0005
166.3755,21.0005
Z" /> 
</g> 
</svg>
