<?xml version="1.0" standalone="no"?>
 <!DOCTYPE svg PUBLIC "-//W3C//DTD SVG 1.1//EN" 
 "http://www.w3.org/Graphics/SVG/1.1/DTD/svg11.dtd"> 
<svg
  xmlns:svg="http://www.w3.org/2000/svg"
  xmlns="http://www.w3.org/2000/svg"
  xmlns:xlink="http://www.w3.org/1999/xlink"
  version="1.1"
  width="297.0022mm" height="210.0072mm" viewBox="0.0000 0.0000 297.0022 210.0072">
<title>SVG Image created as Bastón guiador con detección-F_Silkscreen.svg date 2025/07/20 19:30:48 </title>
  <desc>Image generated by PCBNEW </desc>
<g style="fill:#000000; fill-opacity:1.0000;stroke:#000000; stroke-opacity:1.0000;
stroke-linecap:round; stroke-linejoin:round;"
 transform="translate(0 0) scale(1 1)">
</g>
<g style="fill:none; 
stroke:#000000; stroke-width:0.3000; stroke-opacity:1; 
stroke-linecap:round; stroke-linejoin:round;">
<text x="86.9075" y="65.9500"
textLength="4.0143" font-size="4.0000" lengthAdjust="spacingAndGlyphs"
text-anchor="start" opacity="0" stroke-opacity="0">+</text>
<g class="stroked-text"><desc>+</desc>
<path d="M87.8192 64.4244
L90.1049 64.4244
" />
<path d="M88.9620 65.5673
L88.9620 63.2815
" />
</g><text x="70.0000" y="50.5000"
textLength="4.0143" font-size="4.0000" lengthAdjust="spacingAndGlyphs"
text-anchor="start" opacity="0" stroke-opacity="0">+</text>
<g class="stroked-text"><desc>+</desc>
<path d="M70.9117 48.9744
L73.1974 48.9744
" />
<path d="M72.0545 50.1173
L72.0545 47.8315
" />
</g><text x="141.0000" y="45.0000"
textLength="4.0143" font-size="4.0000" lengthAdjust="spacingAndGlyphs"
text-anchor="start" opacity="0" stroke-opacity="0">+</text>
<g class="stroked-text"><desc>+</desc>
<path d="M141.9117 43.4744
L144.1974 43.4744
" />
<path d="M143.0545 44.6173
L143.0545 42.3315
" />
</g><text x="141.7000" y="72.0400"
textLength="4.0143" font-size="4.0000" lengthAdjust="spacingAndGlyphs"
text-anchor="start" opacity="0" stroke-opacity="0">+</text>
<g class="stroked-text"><desc>+</desc>
<path d="M142.6117 70.5144
L144.8974 70.5144
" />
<path d="M143.7545 71.6573
L143.7545 69.3715
" />
</g></g>
<g style="fill:none; 
stroke:#000000; stroke-width:0.1500; stroke-opacity:1; 
stroke-linecap:round; stroke-linejoin:round;">
<text x="78.5300" y="44.9200"
textLength="1.9643" font-size="1.3333" lengthAdjust="spacingAndGlyphs"
text-anchor="middle" opacity="0" stroke-opacity="0">J3</text>
<g class="stroked-text"><desc>J3</desc>
<path d="M78.1967 43.8748
L78.1967 44.5891
" />
<path d="M78.1967 44.5891
L78.1490 44.7320
" />
<path d="M78.1490 44.7320
L78.0538 44.8272
" />
<path d="M78.0538 44.8272
L77.9110 44.8748
" />
<path d="M77.9110 44.8748
L77.8157 44.8748
" />
<path d="M78.5776 43.8748
L79.1967 43.8748
" />
<path d="M79.1967 43.8748
L78.8633 44.2558
" />
<path d="M78.8633 44.2558
L79.0062 44.2558
" />
<path d="M79.0062 44.2558
L79.1014 44.3034
" />
<path d="M79.1014 44.3034
L79.1490 44.3510
" />
<path d="M79.1490 44.3510
L79.1967 44.4462
" />
<path d="M79.1967 44.4462
L79.1967 44.6843
" />
<path d="M79.1967 44.6843
L79.1490 44.7796
" />
<path d="M79.1490 44.7796
L79.1014 44.8272
" />
<path d="M79.1014 44.8272
L79.0062 44.8748
" />
<path d="M79.0062 44.8748
L78.7205 44.8748
" />
<path d="M78.7205 44.8748
L78.6252 44.8272
" />
<path d="M78.6252 44.8272
L78.5776 44.7796
" />
</g><text x="82.4975" y="69.3300"
textLength="1.9643" font-size="1.3333" lengthAdjust="spacingAndGlyphs"
text-anchor="middle" opacity="0" stroke-opacity="0">J2</text>
<g class="stroked-text"><desc>J2</desc>
<path d="M82.1642 68.2848
L82.1642 68.9991
" />
<path d="M82.1642 68.9991
L82.1165 69.1420
" />
<path d="M82.1165 69.1420
L82.0213 69.2372
" />
<path d="M82.0213 69.2372
L81.8785 69.2848
" />
<path d="M81.8785 69.2848
L81.7832 69.2848
" />
<path d="M82.5927 68.3801
L82.6404 68.3324
" />
<path d="M82.6404 68.3324
L82.7356 68.2848
" />
<path d="M82.7356 68.2848
L82.9737 68.2848
" />
<path d="M82.9737 68.2848
L83.0689 68.3324
" />
<path d="M83.0689 68.3324
L83.1165 68.3801
" />
<path d="M83.1165 68.3801
L83.1642 68.4753
" />
<path d="M83.1642 68.4753
L83.1642 68.5705
" />
<path d="M83.1642 68.5705
L83.1165 68.7134
" />
<path d="M83.1165 68.7134
L82.5451 69.2848
" />
<path d="M82.5451 69.2848
L83.1642 69.2848
" />
</g><text x="96.1450" y="35.1400"
textLength="2.2500" font-size="1.3333" lengthAdjust="spacingAndGlyphs"
text-anchor="middle" opacity="0" stroke-opacity="0">U2</text>
<g class="stroked-text"><desc>U2</desc>
<path d="M95.3831 34.0948
L95.3831 34.9043
" />
<path d="M95.3831 34.9043
L95.4307 34.9996
" />
<path d="M95.4307 34.9996
L95.4783 35.0472
" />
<path d="M95.4783 35.0472
L95.5736 35.0948
" />
<path d="M95.5736 35.0948
L95.7640 35.0948
" />
<path d="M95.7640 35.0948
L95.8593 35.0472
" />
<path d="M95.8593 35.0472
L95.9069 34.9996
" />
<path d="M95.9069 34.9996
L95.9545 34.9043
" />
<path d="M95.9545 34.9043
L95.9545 34.0948
" />
<path d="M96.3831 34.1901
L96.4307 34.1424
" />
<path d="M96.4307 34.1424
L96.5260 34.0948
" />
<path d="M96.5260 34.0948
L96.7640 34.0948
" />
<path d="M96.7640 34.0948
L96.8593 34.1424
" />
<path d="M96.8593 34.1424
L96.9069 34.1901
" />
<path d="M96.9069 34.1901
L96.9545 34.2853
" />
<path d="M96.9545 34.2853
L96.9545 34.3805
" />
<path d="M96.9545 34.3805
L96.9069 34.5234
" />
<path d="M96.9069 34.5234
L96.3355 35.0948
" />
<path d="M96.3355 35.0948
L96.9545 35.0948
" />
</g><text x="130.2000" y="62.1700"
textLength="2.2024" font-size="1.3333" lengthAdjust="spacingAndGlyphs"
text-anchor="middle" opacity="0" stroke-opacity="0">R1</text>
<g class="stroked-text"><desc>R1</desc>
<path d="M130.0333 62.1248
L129.7000 61.6486
" />
<path d="M129.4619 62.1248
L129.4619 61.1248
" />
<path d="M129.4619 61.1248
L129.8429 61.1248
" />
<path d="M129.8429 61.1248
L129.9381 61.1724
" />
<path d="M129.9381 61.1724
L129.9857 61.2201
" />
<path d="M129.9857 61.2201
L130.0333 61.3153
" />
<path d="M130.0333 61.3153
L130.0333 61.4582
" />
<path d="M130.0333 61.4582
L129.9857 61.5534
" />
<path d="M129.9857 61.5534
L129.9381 61.6010
" />
<path d="M129.9381 61.6010
L129.8429 61.6486
" />
<path d="M129.8429 61.6486
L129.4619 61.6486
" />
<path d="M130.9857 62.1248
L130.4143 62.1248
" />
<path d="M130.7000 62.1248
L130.7000 61.1248
" />
<path d="M130.7000 61.1248
L130.6048 61.2677
" />
<path d="M130.6048 61.2677
L130.5095 61.3629
" />
<path d="M130.5095 61.3629
L130.4143 61.4105
" />
</g><text x="130.0000" y="48.1300"
textLength="2.2024" font-size="1.3333" lengthAdjust="spacingAndGlyphs"
text-anchor="middle" opacity="0" stroke-opacity="0">R2</text>
<g class="stroked-text"><desc>R2</desc>
<path d="M129.8333 48.0848
L129.5000 47.6086
" />
<path d="M129.2619 48.0848
L129.2619 47.0848
" />
<path d="M129.2619 47.0848
L129.6429 47.0848
" />
<path d="M129.6429 47.0848
L129.7381 47.1324
" />
<path d="M129.7381 47.1324
L129.7857 47.1801
" />
<path d="M129.7857 47.1801
L129.8333 47.2753
" />
<path d="M129.8333 47.2753
L129.8333 47.4182
" />
<path d="M129.8333 47.4182
L129.7857 47.5134
" />
<path d="M129.7857 47.5134
L129.7381 47.5610
" />
<path d="M129.7381 47.5610
L129.6429 47.6086
" />
<path d="M129.6429 47.6086
L129.2619 47.6086
" />
<path d="M130.2143 47.1801
L130.2619 47.1324
" />
<path d="M130.2619 47.1324
L130.3571 47.0848
" />
<path d="M130.3571 47.0848
L130.5952 47.0848
" />
<path d="M130.5952 47.0848
L130.6905 47.1324
" />
<path d="M130.6905 47.1324
L130.7381 47.1801
" />
<path d="M130.7381 47.1801
L130.7857 47.2753
" />
<path d="M130.7857 47.2753
L130.7857 47.3705
" />
<path d="M130.7857 47.3705
L130.7381 47.5134
" />
<path d="M130.7381 47.5134
L130.1667 48.0848
" />
<path d="M130.1667 48.0848
L130.7857 48.0848
" />
</g><text x="141.0400" y="105.8500"
textLength="1.9643" font-size="1.3333" lengthAdjust="spacingAndGlyphs"
text-anchor="middle" opacity="0" stroke-opacity="0">J1</text>
<g class="stroked-text"><desc>J1</desc>
<path d="M140.7067 104.8048
L140.7067 105.5191
" />
<path d="M140.7067 105.5191
L140.6590 105.6620
" />
<path d="M140.6590 105.6620
L140.5638 105.7572
" />
<path d="M140.5638 105.7572
L140.4210 105.8048
" />
<path d="M140.4210 105.8048
L140.3257 105.8048
" />
<path d="M141.7067 105.8048
L141.1352 105.8048
" />
<path d="M141.4210 105.8048
L141.4210 104.8048
" />
<path d="M141.4210 104.8048
L141.3257 104.9477
" />
<path d="M141.3257 104.9477
L141.2305 105.0429
" />
<path d="M141.2305 105.0429
L141.1352 105.0905
" />
</g><text x="158.5000" y="56.7000"
textLength="3.1548" font-size="1.3333" lengthAdjust="spacingAndGlyphs"
text-anchor="middle" opacity="0" stroke-opacity="0">BZ1</text>
<g class="stroked-text"><desc>BZ1</desc>
<path d="M157.6190 56.1310
L157.7619 56.1786
" />
<path d="M157.7619 56.1786
L157.8095 56.2262
" />
<path d="M157.8095 56.2262
L157.8571 56.3215
" />
<path d="M157.8571 56.3215
L157.8571 56.4643
" />
<path d="M157.8571 56.4643
L157.8095 56.5596
" />
<path d="M157.8095 56.5596
L157.7619 56.6072
" />
<path d="M157.7619 56.6072
L157.6667 56.6548
" />
<path d="M157.6667 56.6548
L157.2857 56.6548
" />
<path d="M157.2857 56.6548
L157.2857 55.6548
" />
<path d="M157.2857 55.6548
L157.6190 55.6548
" />
<path d="M157.6190 55.6548
L157.7143 55.7024
" />
<path d="M157.7143 55.7024
L157.7619 55.7501
" />
<path d="M157.7619 55.7501
L157.8095 55.8453
" />
<path d="M157.8095 55.8453
L157.8095 55.9405
" />
<path d="M157.8095 55.9405
L157.7619 56.0358
" />
<path d="M157.7619 56.0358
L157.7143 56.0834
" />
<path d="M157.7143 56.0834
L157.6190 56.1310
" />
<path d="M157.6190 56.1310
L157.2857 56.1310
" />
<path d="M158.1905 55.6548
L158.8571 55.6548
" />
<path d="M158.8571 55.6548
L158.1905 56.6548
" />
<path d="M158.1905 56.6548
L158.8571 56.6548
" />
<path d="M159.7619 56.6548
L159.1905 56.6548
" />
<path d="M159.4762 56.6548
L159.4762 55.6548
" />
<path d="M159.4762 55.6548
L159.3810 55.7977
" />
<path d="M159.3810 55.7977
L159.2857 55.8929
" />
<path d="M159.2857 55.8929
L159.1905 55.9405
" />
</g><text x="162.3100" y="52.0400"
textLength="1.4881" font-size="1.3333" lengthAdjust="spacingAndGlyphs"
text-anchor="middle" opacity="0" stroke-opacity="0">+</text>
<g class="stroked-text"><desc>+</desc>
<path d="M161.9290 51.6139
L162.6910 51.6139
" />
<path d="M162.3100 51.9948
L162.3100 51.2329
" />
</g><g transform="rotate(-90.000000 137.4900 50.0000)">
<text x="137.4900" y="50.5000"
textLength="2.2500" font-size="1.3333" lengthAdjust="spacingAndGlyphs"
text-anchor="middle" opacity="0" stroke-opacity="0">Q2</text>
</g>
<g class="stroked-text"><desc>Q2</desc>
<path d="M138.0401 50.0952
L137.9924 50.1905
" />
<path d="M137.9924 50.1905
L137.8972 50.2857
" />
<path d="M137.8972 50.2857
L137.7543 50.4286
" />
<path d="M137.7543 50.4286
L137.7067 50.5238
" />
<path d="M137.7067 50.5238
L137.7067 50.6190
" />
<path d="M137.9448 50.5714
L137.8972 50.6667
" />
<path d="M137.8972 50.6667
L137.8020 50.7619
" />
<path d="M137.8020 50.7619
L137.6115 50.8095
" />
<path d="M137.6115 50.8095
L137.2782 50.8095
" />
<path d="M137.2782 50.8095
L137.0877 50.7619
" />
<path d="M137.0877 50.7619
L136.9924 50.6667
" />
<path d="M136.9924 50.6667
L136.9448 50.5714
" />
<path d="M136.9448 50.5714
L136.9448 50.3810
" />
<path d="M136.9448 50.3810
L136.9924 50.2857
" />
<path d="M136.9924 50.2857
L137.0877 50.1905
" />
<path d="M137.0877 50.1905
L137.2782 50.1429
" />
<path d="M137.2782 50.1429
L137.6115 50.1429
" />
<path d="M137.6115 50.1429
L137.8020 50.1905
" />
<path d="M137.8020 50.1905
L137.8972 50.2857
" />
<path d="M137.8972 50.2857
L137.9448 50.3810
" />
<path d="M137.9448 50.3810
L137.9448 50.5714
" />
<path d="M137.0401 49.7619
L136.9924 49.7143
" />
<path d="M136.9924 49.7143
L136.9448 49.6190
" />
<path d="M136.9448 49.6190
L136.9448 49.3810
" />
<path d="M136.9448 49.3810
L136.9924 49.2857
" />
<path d="M136.9924 49.2857
L137.0401 49.2381
" />
<path d="M137.0401 49.2381
L137.1353 49.1905
" />
<path d="M137.1353 49.1905
L137.2305 49.1905
" />
<path d="M137.2305 49.1905
L137.3734 49.2381
" />
<path d="M137.3734 49.2381
L137.9448 49.8095
" />
<path d="M137.9448 49.8095
L137.9448 49.1905
" />
</g><text x="73.5000" y="111.3000"
textLength="4.5357" font-size="1.3333" lengthAdjust="spacingAndGlyphs"
text-anchor="middle" opacity="0" stroke-opacity="0">REF**</text>
<g class="stroked-text"><desc>REF**</desc>
<path d="M72.1667 111.2548
L71.8333 110.7786
" />
<path d="M71.5952 111.2548
L71.5952 110.2548
" />
<path d="M71.5952 110.2548
L71.9762 110.2548
" />
<path d="M71.9762 110.2548
L72.0714 110.3024
" />
<path d="M72.0714 110.3024
L72.1190 110.3501
" />
<path d="M72.1190 110.3501
L72.1667 110.4453
" />
<path d="M72.1667 110.4453
L72.1667 110.5882
" />
<path d="M72.1667 110.5882
L72.1190 110.6834
" />
<path d="M72.1190 110.6834
L72.0714 110.7310
" />
<path d="M72.0714 110.7310
L71.9762 110.7786
" />
<path d="M71.9762 110.7786
L71.5952 110.7786
" />
<path d="M72.5952 110.7310
L72.9286 110.7310
" />
<path d="M73.0714 111.2548
L72.5952 111.2548
" />
<path d="M72.5952 111.2548
L72.5952 110.2548
" />
<path d="M72.5952 110.2548
L73.0714 110.2548
" />
<path d="M73.8333 110.7310
L73.5000 110.7310
" />
<path d="M73.5000 111.2548
L73.5000 110.2548
" />
<path d="M73.5000 110.2548
L73.9762 110.2548
" />
<path d="M74.5000 110.2548
L74.5000 110.4929
" />
<path d="M74.2619 110.3977
L74.5000 110.4929
" />
<path d="M74.5000 110.4929
L74.7381 110.3977
" />
<path d="M74.3571 110.6834
L74.5000 110.4929
" />
<path d="M74.5000 110.4929
L74.6429 110.6834
" />
<path d="M75.2619 110.2548
L75.2619 110.4929
" />
<path d="M75.0238 110.3977
L75.2619 110.4929
" />
<path d="M75.2619 110.4929
L75.5000 110.3977
" />
<path d="M75.1190 110.6834
L75.2619 110.4929
" />
<path d="M75.2619 110.4929
L75.4048 110.6834
" />
</g><text x="82.7625" y="24.4450"
textLength="1.9643" font-size="1.3333" lengthAdjust="spacingAndGlyphs"
text-anchor="middle" opacity="0" stroke-opacity="0">J4</text>
<g class="stroked-text"><desc>J4</desc>
<path d="M82.4292 23.3998
L82.4292 24.1141
" />
<path d="M82.4292 24.1141
L82.3815 24.2570
" />
<path d="M82.3815 24.2570
L82.2863 24.3522
" />
<path d="M82.2863 24.3522
L82.1435 24.3998
" />
<path d="M82.1435 24.3998
L82.0482 24.3998
" />
<path d="M83.3339 23.7332
L83.3339 24.3998
" />
<path d="M83.0958 23.3522
L82.8577 24.0665
" />
<path d="M82.8577 24.0665
L83.4768 24.0665
" />
</g><g transform="rotate(-90.000000 149.3100 64.0000)">
<text x="149.3100" y="64.5000"
textLength="2.2500" font-size="1.3333" lengthAdjust="spacingAndGlyphs"
text-anchor="middle" opacity="0" stroke-opacity="0">Q1</text>
</g>
<g class="stroked-text"><desc>Q1</desc>
<path d="M149.8601 64.0952
L149.8124 64.1905
" />
<path d="M149.8124 64.1905
L149.7172 64.2857
" />
<path d="M149.7172 64.2857
L149.5743 64.4286
" />
<path d="M149.5743 64.4286
L149.5267 64.5238
" />
<path d="M149.5267 64.5238
L149.5267 64.6190
" />
<path d="M149.7648 64.5714
L149.7172 64.6667
" />
<path d="M149.7172 64.6667
L149.6220 64.7619
" />
<path d="M149.6220 64.7619
L149.4315 64.8095
" />
<path d="M149.4315 64.8095
L149.0982 64.8095
" />
<path d="M149.0982 64.8095
L148.9077 64.7619
" />
<path d="M148.9077 64.7619
L148.8124 64.6667
" />
<path d="M148.8124 64.6667
L148.7648 64.5714
" />
<path d="M148.7648 64.5714
L148.7648 64.3810
" />
<path d="M148.7648 64.3810
L148.8124 64.2857
" />
<path d="M148.8124 64.2857
L148.9077 64.1905
" />
<path d="M148.9077 64.1905
L149.0982 64.1429
" />
<path d="M149.0982 64.1429
L149.4315 64.1429
" />
<path d="M149.4315 64.1429
L149.6220 64.1905
" />
<path d="M149.6220 64.1905
L149.7172 64.2857
" />
<path d="M149.7172 64.2857
L149.7648 64.3810
" />
<path d="M149.7648 64.3810
L149.7648 64.5714
" />
<path d="M149.7648 63.1905
L149.7648 63.7619
" />
<path d="M149.7648 63.4762
L148.7648 63.4762
" />
<path d="M148.7648 63.4762
L148.9077 63.5714
" />
<path d="M148.9077 63.5714
L149.0029 63.6667
" />
<path d="M149.0029 63.6667
L149.0505 63.7619
" />
</g><text x="156.7000" y="59.9550"
textLength="2.3452" font-size="1.3333" lengthAdjust="spacingAndGlyphs"
text-anchor="middle" opacity="0" stroke-opacity="0">M1</text>
<g class="stroked-text"><desc>M1</desc>
<path d="M155.8905 59.9098
L155.8905 58.9098
" />
<path d="M155.8905 58.9098
L156.2238 59.6241
" />
<path d="M156.2238 59.6241
L156.5571 58.9098
" />
<path d="M156.5571 58.9098
L156.5571 59.9098
" />
<path d="M157.5571 59.9098
L156.9857 59.9098
" />
<path d="M157.2714 59.9098
L157.2714 58.9098
" />
<path d="M157.2714 58.9098
L157.1762 59.0527
" />
<path d="M157.1762 59.0527
L157.0810 59.1479
" />
<path d="M157.0810 59.1479
L156.9857 59.1955
" />
</g><text x="78.1900" y="92.2550"
textLength="2.2500" font-size="1.3333" lengthAdjust="spacingAndGlyphs"
text-anchor="middle" opacity="0" stroke-opacity="0">U1</text>
<g class="stroked-text"><desc>U1</desc>
<path d="M77.4281 91.2098
L77.4281 92.0193
" />
<path d="M77.4281 92.0193
L77.4757 92.1146
" />
<path d="M77.4757 92.1146
L77.5233 92.1622
" />
<path d="M77.5233 92.1622
L77.6186 92.2098
" />
<path d="M77.6186 92.2098
L77.8090 92.2098
" />
<path d="M77.8090 92.2098
L77.9043 92.1622
" />
<path d="M77.9043 92.1622
L77.9519 92.1146
" />
<path d="M77.9519 92.1146
L77.9995 92.0193
" />
<path d="M77.9995 92.0193
L77.9995 91.2098
" />
<path d="M78.9995 92.2098
L78.4281 92.2098
" />
<path d="M78.7138 92.2098
L78.7138 91.2098
" />
<path d="M78.7138 91.2098
L78.6186 91.3527
" />
<path d="M78.6186 91.3527
L78.5233 91.4479
" />
<path d="M78.5233 91.4479
L78.4281 91.4955
" />
</g></g>
<g style="fill:none; 
stroke:#000000; stroke-width:0.1200; stroke-opacity:1; 
stroke-linecap:round; stroke-linejoin:round;">
<path d="M74.1200 47.3000
L74.1200 49.5000
" />
<path d="M74.4600 47.5900
L74.4600 49.5000
" />
<path d="M74.4600 47.5900
L82.5900 47.5900
" />
<path d="M74.4600 49.5000
L74.4600 54.3300
" />
<path d="M75.4200 47.3000
L74.1200 47.3000
" />
<path d="M75.7300 46.2000
L81.3200 46.2000
" />
<path d="M75.7300 46.4500
L81.3200 46.4500
" />
<path d="M75.7300 47.3400
L81.3200 47.3400
" />
<path d="M75.7300 47.5900
L75.7300 46.2000
" />
<path d="M78.1400 54.0700
L78.9100 54.0700
" />
<path d="M78.1400 54.3300
L74.4600 54.3300
" />
<path d="M78.1400 54.3300
L78.1400 54.0700
" />
<path d="M78.9100 54.0700
L78.9100 54.3300
" />
<path d="M78.9100 54.3300
L82.5900 54.3300
" />
<path d="M81.3200 47.5900
L81.3200 46.2000
" />
<path d="M82.5900 47.5900
L82.5900 49.5000
" />
<path d="M82.5900 54.3300
L82.5900 49.5000
" />
<path d="M78.4375 58.9200
L78.4375 63.7500
" />
<path d="M78.4375 65.6600
L78.4375 63.7500
" />
<path d="M79.7075 65.6600
L79.7075 67.0500
" />
<path d="M82.1175 58.9200
L78.4375 58.9200
" />
<path d="M82.1175 59.1800
L82.1175 58.9200
" />
<path d="M82.8875 58.9200
L82.8875 59.1800
" />
<path d="M82.8875 58.9200
L86.5675 58.9200
" />
<path d="M82.8875 59.1800
L82.1175 59.1800
" />
<path d="M85.2975 65.6600
L85.2975 67.0500
" />
<path d="M85.2975 65.9100
L79.7075 65.9100
" />
<path d="M85.2975 66.8000
L79.7075 66.8000
" />
<path d="M85.2975 67.0500
L79.7075 67.0500
" />
<path d="M85.6075 65.9500
L86.9075 65.9500
" />
<path d="M86.5675 63.7500
L86.5675 58.9200
" />
<path d="M86.5675 65.6600
L78.4375 65.6600
" />
<path d="M86.5675 65.6600
L86.5675 63.7500
" />
<path d="M86.9075 65.9500
L86.9075 63.7500
" />
</g>
<g style="fill:none; 
stroke:#000000; stroke-width:0.1270; stroke-opacity:1; 
stroke-linecap:round; stroke-linejoin:round;">
<path d="M93.2200 36.5250
L104.2890 36.5250
" />
<path d="M93.2200 36.5250
L121.7300 36.5250
" />
<path d="M93.2200 87.4750
L93.2200 36.5250
" />
<path d="M93.2200 87.4750
L93.2200 36.5250
" />
<path d="M93.2200 87.4750
L98.5900 87.4750
" />
<path d="M98.5900 87.4750
L116.2800 87.4750
" />
<path d="M104.2890 36.5250
L111.0000 36.5250
" />
<path d="M111.0000 36.5250
L121.7300 36.5250
" />
<path d="M116.2800 87.4750
L121.7300 87.4750
" />
<path d="M121.7300 36.5250
L121.7300 87.4750
" />
<path d="M121.7300 36.5250
L121.7300 87.4750
" />
<path d="M121.7300 87.4750
L93.2200 87.4750
" />
</g>
<g style="fill:none; 
stroke:#000000; stroke-width:0.2000; stroke-opacity:1; 
stroke-linecap:round; stroke-linejoin:round;">
<circle cx="92.6500" cy="46.4850" r="0.1000" /> 
</g>
<g style="fill:none; 
stroke:#000000; stroke-width:0.1200; stroke-opacity:1; 
stroke-linecap:round; stroke-linejoin:round;">
<path d="M126.1600 64.0400
L126.9300 64.0400
" />
<path d="M134.2400 64.0400
L133.4700 64.0400
" />
<path style="fill:none; 
stroke:#000000; stroke-width:0.1200; stroke-opacity:1; 
stroke-linecap:round; stroke-linejoin:round;fill:none"
d="M 126.9300,62.6700
133.4700,62.6700
133.4700,65.4100
126.9300,65.4100
Z" /> 
<path d="M125.9600 50.0000
L126.7300 50.0000
" />
<path d="M134.0400 50.0000
L133.2700 50.0000
" />
<path style="fill:none; 
stroke:#000000; stroke-width:0.1200; stroke-opacity:1; 
stroke-linecap:round; stroke-linejoin:round;fill:none"
d="M 126.7300,48.6300
133.2700,48.6300
133.2700,51.3700
126.7300,51.3700
Z" /> 
<path d="M130.6600 106.4400
L132.0800 106.4400
" />
<path d="M130.6600 114.6600
L130.6600 106.4400
" />
<path d="M132.0800 106.4400
L132.0800 107.3900
" />
<path d="M132.0800 107.3900
L141.0400 107.3900
" />
<path d="M141.0400 114.6600
L130.6600 114.6600
" />
<path d="M141.0400 114.6600
L151.4200 114.6600
" />
<path d="M150.0000 106.4400
L150.0000 107.3900
" />
<path d="M150.0000 107.3900
L141.0400 107.3900
" />
<path d="M151.4200 106.4400
L150.0000 106.4400
" />
<path d="M151.4200 114.6600
L151.4200 106.4400
" />
<circle cx="133.1200" cy="106.7500" r="0.2500" /> 
<circle cx="158.5000" cy="49.0000" r="6.1000" /> 
<path d="M138.7253 53.8110
L139.4890 54.5747
" />
<path d="M139.4890 54.5747
L140.3022 53.7615
" />
<path d="M139.5385 52.9978
L138.7253 53.8110
" />
<path d="M140.3022 53.7615 A4.8100 4.8100 0.0 1 0 139.5385 52.9978" />
<path d="M78.3525 26.8250
L78.3525 29.0250
" />
<path d="M78.6925 27.1150
L78.6925 29.0250
" />
<path d="M78.6925 27.1150
L86.8225 27.1150
" />
<path d="M78.6925 29.0250
L78.6925 33.8550
" />
<path d="M79.6525 26.8250
L78.3525 26.8250
" />
<path d="M79.9625 25.7250
L85.5525 25.7250
" />
<path d="M79.9625 25.9750
L85.5525 25.9750
" />
<path d="M79.9625 26.8650
L85.5525 26.8650
" />
<path d="M79.9625 27.1150
L79.9625 25.7250
" />
<path d="M82.3725 33.5950
L83.1425 33.5950
" />
<path d="M82.3725 33.8550
L78.6925 33.8550
" />
<path d="M82.3725 33.8550
L82.3725 33.5950
" />
<path d="M83.1425 33.5950
L83.1425 33.8550
" />
<path d="M83.1425 33.8550
L86.8225 33.8550
" />
<path d="M85.5525 27.1150
L85.5525 25.7250
" />
<path d="M86.8225 27.1150
L86.8225 29.0250
" />
<path d="M86.8225 33.8550
L86.8225 29.0250
" />
<path d="M147.2615 61.0022
L148.0747 60.1890
" />
<path d="M147.3110 59.4253
L146.4978 60.2385
" />
<path d="M148.0747 60.1890
L147.3110 59.4253
" />
<path d="M146.4978 60.2385 A4.8100 4.8100 0.0 1 0 147.2615 61.0022" />
<path d="M151.0450 60.4550
L152.3150 60.4550
" />
<path d="M151.0450 61.7250
L151.0450 60.4550
" />
<path d="M153.3924 63.8350
L153.7050 63.8350
" />
<path d="M153.3924 64.6950
L153.7050 64.6950
" />
<path d="M153.4750 61.2950
L153.7050 61.2950
" />
<path d="M153.4750 62.1550
L153.7050 62.1550
" />
<path d="M153.7050 60.3450
L153.7050 65.6450
" />
<path d="M153.7050 62.9950
L156.4650 62.9950
" />
<path d="M153.7050 65.6450
L156.4650 65.6450
" />
<path d="M156.4650 60.3450
L153.7050 60.3450
" />
<path d="M156.4650 63.8350
L162.4650 63.8350
" />
<path d="M156.4650 65.6450
L156.4650 60.3450
" />
<path d="M162.4650 63.8350
L162.4650 64.6950
" />
<path d="M162.4650 64.6950
L156.4650 64.6950
" />
<path style="fill:#000000; fill-opacity:1.0000; 
stroke:#000000; stroke-width:0.1200; stroke-opacity:1; 
stroke-linecap:round; stroke-linejoin:round;fill-rule:evenodd;"
d="M 156.4650,61.2950
162.4650,61.2950
162.4650,62.1550
156.4650,62.1550
Z" /> 
<path style="fill:none; 
stroke:#000000; stroke-width:0.1200; stroke-opacity:1; 
stroke-linecap:round; stroke-linejoin:round;fill:none"
d="M 85.8100,105.2250
70.5700,105.2250
70.5700,79.8250
85.8100,79.8250
Z" /> 
</g> 
</svg>
